<svg width="1537" height="282" viewBox="0 0 1537 282" fill="none" xmlns="http://www.w3.org/2000/svg">
<g clip-path="url(#clip0_0_138)">
<path d="M0.834722 237.953C7.3774 235.66 13.9252 233.447 20.3606 230.861C26.6918 228.298 32.7317 225.07 38.3799 221.231C49.1306 213.895 58.6407 204.662 70.3694 198.769C76.2162 195.676 82.6725 193.903 89.2887 193.574C89.3971 193.581 89.5006 193.623 89.5848 193.692C89.669 193.762 89.7298 193.855 89.7586 193.961C89.7875 194.066 89.7829 194.177 89.7456 194.28C89.7083 194.382 89.6401 194.47 89.5505 194.531L72.4497 202.731C66.7503 205.478 61.1725 208.364 55.4057 211.067C54.5962 211.534 53.8112 210.21 54.6725 209.797C60.3628 207.034 66.1488 204.509 71.8975 201.775L89.0436 193.653C89.1975 193.919 89.2112 194.267 89.2963 194.594C76.6654 194.862 65.6997 202.113 56.2991 209.882C51.116 214.17 46.0884 218.62 40.6167 222.553C35.1658 226.404 29.2928 229.62 23.1109 232.137C15.9743 235.015 8.67366 237.471 1.24617 239.492C0.303424 239.765 -0.0537065 238.32 0.861878 238L0.834722 237.953Z" fill="black" fill-opacity="0.08"/>
<path d="M2.09708 237.516C12.8204 236.029 21.8911 228.66 33.0508 229.366C38.4497 229.922 43.7624 231.153 48.8652 233.03C54.2231 234.797 59.4763 236.873 64.5984 239.249C70.3497 241.976 75.944 245.028 81.3542 248.39C81.4807 248.467 81.5794 248.582 81.6357 248.72C81.6919 248.857 81.7027 249.008 81.6664 249.151C81.63 249.294 81.5485 249.421 81.4341 249.514C81.3196 249.606 81.1782 249.659 81.0309 249.664C75.299 249.587 69.4115 249.599 64.2666 246.8C59.1217 244 55.4057 239.038 50.2738 236.189C50.1352 236.111 50.0328 235.981 49.9892 235.828C49.9455 235.675 49.9641 235.511 50.041 235.372C50.1178 235.233 50.2466 235.131 50.399 235.089C50.5513 235.046 50.7148 235.065 50.8534 235.143C55.7767 237.883 59.7052 241.991 64.5376 244.824C69.37 247.658 75.3891 248.197 81.0924 248.332C80.9816 248.752 80.8553 249.18 80.7536 249.615C76.0426 246.766 71.1595 244.216 66.1333 241.98C61.034 239.629 55.8066 237.573 50.4765 235.821C45.3984 233.989 40.1635 232.637 34.8402 231.783C29.5613 231.197 24.2271 231.876 19.2762 233.765C13.7179 235.678 8.24682 238.21 2.30823 238.565C1.73005 238.606 1.58877 237.643 2.16442 237.561L2.09708 237.516Z" fill="black" fill-opacity="0.08"/>
<path d="M26.9098 229.191C31.6295 230.498 36.4403 231.438 41.2994 232.005C45.8092 232.414 50.3509 232.067 54.7377 230.978C62.8796 228.974 70.4471 225.148 78.5683 223.073C82.9823 221.848 87.5995 221.513 92.1543 222.086L91.7869 223.427C80.0365 220.276 67.5709 221.527 56.7264 226.944C53.6466 228.474 50.7602 230.365 48.1273 232.578C48.0419 232.669 47.938 232.74 47.8226 232.786C47.7071 232.832 47.5829 232.853 47.4585 232.846C47.3341 232.84 47.2123 232.806 47.1016 232.749C46.9909 232.691 46.8938 232.609 46.817 232.51C46.7402 232.412 46.6856 232.297 46.6567 232.175C46.6279 232.054 46.6256 231.927 46.65 231.805C46.6744 231.682 46.725 231.567 46.7981 231.466C46.8713 231.365 46.9654 231.282 47.074 231.221C56.9576 223.602 69.2327 219.759 81.7219 220.374C85.2362 220.565 88.7235 221.123 92.1271 222.039C93.0134 222.28 92.6229 223.509 91.7598 223.38C83.2386 222.174 75.007 225.317 67.1918 228.282C59.3766 231.247 51.1143 234.157 42.4292 233.422C37.0747 232.806 31.7826 231.712 26.6155 230.155C25.9598 229.99 26.2269 228.979 26.8826 229.144L26.9098 229.191Z" fill="black" fill-opacity="0.08"/>
<path d="M1.28264 237.903C5.01932 236.925 8.93326 236.809 12.7315 237.565C16.7028 238.234 20.6118 239.244 24.4157 240.582C33.0098 243.459 41.7479 246.191 50.0596 249.838C54.4584 251.625 58.5914 254.016 62.3397 256.943C62.7644 257.284 62.1725 257.876 61.7633 257.527C58.4344 254.936 54.7545 252.836 50.8367 251.292C46.945 249.692 42.8672 248.597 38.8857 247.238L25.9332 242.779C22.3042 241.48 18.6027 240.398 14.8482 239.541C12.6838 239.057 10.4817 238.768 8.26835 238.678C6.06797 238.669 3.87188 238.845 1.70346 239.207C1.54196 239.23 1.37717 239.193 1.24044 239.103C1.1037 239.012 1.00451 238.875 0.961707 238.716C0.9189 238.558 0.935464 238.39 1.00824 238.243C1.08102 238.097 1.20495 237.983 1.3565 237.923L1.28264 237.903Z" fill="black" fill-opacity="0.08"/>
</g>
<g clip-path="url(#clip1_0_138)">
<path d="M1400.83 228.731C1401.79 226.205 1403.3 223.923 1405.24 222.044C1407.18 220.165 1409.51 218.736 1412.07 217.858C1413.77 217.27 1415.38 216.374 1417.03 215.63C1415.52 214.925 1413.89 214.53 1412.22 214.468C1408.29 214.328 1404.57 212.648 1401.85 209.791C1401.32 208.991 1400.97 208.088 1400.81 207.141C1400.66 206.194 1400.7 205.225 1400.95 204.298C1401.44 202.495 1403.57 203.306 1404.93 203.873C1409.33 205.626 1414.15 206.888 1417.93 209.579C1422.89 213.167 1428.29 213.159 1433.76 213.845C1425.05 210.041 1417.74 203.609 1412.86 195.449C1411.76 193.537 1410.54 193.566 1408.81 194.323C1404.68 196.089 1400.02 196.153 1395.85 194.5C1391.67 192.848 1388.31 189.613 1386.5 185.498C1386.1 184.606 1385.92 183.039 1386.43 182.5C1386.88 182.212 1387.37 182.02 1387.89 181.935C1388.42 181.851 1388.95 181.875 1389.46 182.008C1392.29 182.531 1395.08 183.281 1397.88 183.951L1398.4 184.007L1397.94 183.729C1397.47 183.134 1396.97 182.576 1396.41 182.061C1392.74 178.786 1390.11 174.502 1388.85 169.744C1388.71 168.652 1388.76 167.544 1389 166.471C1389.91 166.584 1390.95 166.413 1391.7 166.791C1396.84 169.208 1401.37 172.778 1404.92 177.223C1404.18 174.065 1403.67 170.856 1403.4 167.623C1403.35 162.791 1401.81 158.092 1398.98 154.168C1397.46 151.434 1396.07 148.624 1394.83 145.748C1394.45 145.088 1393.31 144.21 1392.75 144.345C1381.92 147.002 1373.38 140.74 1364.19 137.011C1362.24 136.261 1362.3 134.353 1364.27 133.314C1365.89 132.411 1367.68 131.843 1369.53 131.642C1376.77 131.19 1383.98 132.837 1390.31 136.385C1389.03 132.513 1387.6 129.065 1386.75 125.488C1385.62 120.684 1385.25 115.799 1387.61 111.16C1388.7 109.008 1390.36 108.445 1391.72 109.963C1393.46 111.767 1394.91 113.82 1396.04 116.053C1397.52 119.263 1398.34 122.736 1398.45 126.266C1398.56 129.796 1397.96 133.312 1396.68 136.603C1396.08 138.105 1395.87 139.741 1396.09 141.348C1397.25 146.39 1399.44 151.138 1402.52 155.296C1403.43 150.066 1404.19 145.223 1405.19 140.482C1407.1 131.879 1410.29 123.613 1414.65 115.96C1415.21 115.135 1415.5 114.158 1415.48 113.16C1415.47 112.162 1415.15 111.192 1414.57 110.382C1413 107.952 1411.67 105.363 1410.14 102.91C1406.46 96.9199 1402.43 91.3722 1394.48 91.0152C1394.23 90.9888 1393.98 90.9224 1393.75 90.8187C1388.81 89.2178 1384.65 85.8191 1382.1 81.2963C1380.96 79.3283 1381.81 77.8821 1384.04 77.6988C1384.79 77.722 1385.53 77.8341 1386.26 78.0327C1392.15 79.2245 1397.75 81.0512 1401.97 85.0969C1402.21 81.8738 1402.66 78.6693 1403.3 75.5023C1403.63 74.2251 1405.44 73.347 1406.59 72.2902C1407.67 73.1929 1408.57 74.285 1409.26 75.5124C1411.04 81.1932 1411.23 86.8155 1407.85 92.141C1407.63 92.6223 1407.52 93.15 1407.53 93.6819C1407.55 94.2137 1407.69 94.7349 1407.94 95.2038C1410.82 99.9326 1413.86 104.55 1416.91 109.16C1417.05 109.399 1418.32 109.301 1418.39 109.13C1419.98 104.652 1422.21 100.253 1422.82 95.6437C1423.93 87.0945 1419.45 80.5704 1413.34 75.0445C1404.61 67.1374 1388.26 62.2552 1376.9 70.5546C1375.61 71.4333 1374.59 72.6702 1373.98 74.1155C1372.89 76.9028 1371.34 79.4916 1369.41 81.78C1365.85 85.4331 1362.09 88.8952 1358.16 92.1519C1357.32 92.8996 1355.71 93.7952 1355.03 93.4576C1354.47 93.0988 1354 92.6311 1353.63 92.0831C1353.26 91.5351 1353.01 90.9181 1352.89 90.2696C1352.57 88.217 1352.7 86.1197 1353.29 84.1273C1353.87 82.135 1354.89 80.2966 1356.26 78.7435C1359.08 75.1307 1363.12 73.4513 1367.14 71.6574L1367.32 71.5521L1367.14 71.6574L1362.63 71.7284C1359.68 71.819 1356.75 71.2117 1354.07 69.9558C1351.4 68.6999 1349.05 66.8308 1347.23 64.5001C1344.52 61.0989 1345.6 58.8248 1349.89 58.5634C1353.03 58.2999 1356.2 58.3556 1359.34 58.7297C1365.47 59.6307 1371.11 61.6807 1373.86 68.0019C1374.5 69.5049 1375.32 68.882 1376.2 68.3575C1385.54 62.7362 1395.17 62.9138 1404.99 66.9911C1406.76 67.7151 1408.51 68.4834 1410.25 69.2377C1409.97 68.7391 1409.61 68.2808 1409.21 67.8751C1402.41 62.4262 1395.76 56.5763 1386.8 54.7016C1379.95 53.2759 1375.51 48.4723 1371.65 43.1474C1370.93 42.1579 1371.34 40.3451 1371.23 38.9126C1372.42 38.8087 1373.61 38.8549 1374.79 39.0504C1381.86 41.0676 1388.41 44.6038 1393.98 49.4122C1393.86 47.8711 1393.7 46.4991 1393.63 45.1148C1393.29 41.0654 1394.47 37.0364 1396.96 33.8243C1399.35 30.7745 1402.19 30.9331 1403.17 34.3427C1404.38 38.5328 1405.14 42.841 1405.42 47.1923C1405.57 48.903 1405.29 50.6227 1404.61 52.1972C1403.93 53.7716 1402.86 55.1514 1401.52 56.2128C1399.54 57.7114 1400.09 58.1803 1401.74 59.1221C1403.29 59.9472 1404.74 60.9466 1406.06 62.1007C1409.11 64.8411 1411.99 67.7577 1414.69 70.8353C1416.69 73.4678 1418.53 76.2215 1420.18 79.0804C1420.62 77.1195 1420.82 75.1141 1420.79 73.105C1421.41 65.4793 1424.73 62.738 1429.78 61.057C1432.58 60.1349 1433.52 61.0532 1433.3 63.9158C1432.58 71.2139 1430.69 78.0212 1424.63 82.8515C1423.72 83.5814 1423.4 83.971 1423.93 85.2188C1425.13 87.8639 1425.78 90.7277 1425.82 93.6309C1425.86 96.5341 1425.31 99.4142 1424.19 102.091C1421.77 107.984 1418.96 113.735 1416.12 119.479C1413.04 125.266 1410.82 131.467 1409.51 137.892C1411.61 136.836 1413.56 135.502 1415.31 133.928C1419.93 129.553 1424.19 124.786 1429.04 120.675C1430.4 119.7 1431.42 118.327 1431.97 116.746C1432.52 115.165 1432.57 113.452 1432.1 111.842C1431.32 108.05 1430.91 104.192 1430.86 100.321C1430.89 98.1783 1431.36 96.0646 1432.21 94.1021C1433.07 92.1397 1434.31 90.3674 1435.86 88.8878C1437.88 86.8194 1439.66 87.2375 1440.67 89.8601C1440.91 90.5721 1441.08 91.3034 1441.2 92.0458C1442.51 99.0434 1441.77 106.269 1439.06 112.847L1442.89 111.573C1447.41 110.091 1451.95 109.247 1456.39 111.557C1457.02 111.848 1457.59 112.27 1458.04 112.796C1458.5 113.322 1458.83 113.939 1459.03 114.606C1458.89 115.308 1458.59 115.968 1458.16 116.54C1457.73 117.112 1457.18 117.582 1456.55 117.916C1453.59 119.574 1450.33 120.627 1446.97 121.014C1443.6 121.4 1440.19 121.114 1436.93 120.17C1435.94 119.803 1434.87 119.743 1433.84 119.998C1432.82 120.253 1431.9 120.812 1431.21 121.6C1426.81 126.012 1422.42 130.424 1417.91 134.733C1415.57 136.943 1413.36 139.365 1409.86 139.979C1409.37 140.18 1408.93 140.499 1408.6 140.907C1408.26 141.314 1408.02 141.799 1407.92 142.319C1407.21 149.289 1406.06 156.307 1406.28 163.265C1406.54 175.896 1410.81 188.122 1418.48 198.17C1421.17 201.732 1427.18 206.769 1430.43 207.783C1429.78 206.077 1429.03 204.224 1428.37 202.337C1427.58 199.47 1425.75 197.001 1423.23 195.423C1419.96 193.469 1417.43 190.492 1416.02 186.953C1414.71 183.738 1414.12 180.421 1415.77 177.147C1417.33 174.146 1419.49 173.873 1420.91 176.842C1422.61 180.455 1424.09 184.172 1425.33 187.971C1426.12 190.25 1426.51 192.67 1427.08 195.02L1427.89 194.907C1427.84 193.587 1427.85 192.27 1427.75 190.961C1427.22 183.919 1430.82 180.601 1436.12 177.56C1437.41 176.815 1438.91 176.624 1438.82 178.999C1438.75 186.106 1437.68 192.777 1431.31 197.321C1430.91 197.648 1430.58 198.062 1430.37 198.532C1430.15 199.002 1430.04 199.516 1430.05 200.035C1431.32 207.585 1435.52 211.611 1443.02 212.786C1444.26 212.993 1445.52 213.084 1446.77 213.058C1467.3 212.451 1481.85 202.515 1490.7 184.267C1493.95 177.966 1495.12 170.794 1494.05 163.78C1493.44 160.173 1491.84 157.201 1488.44 155.883C1483.91 154.131 1479.17 152.798 1474.5 151.483C1473.67 151.235 1472.43 151.97 1471.54 152.502C1467.4 154.892 1463.51 157.718 1459.31 159.937C1455.11 162.157 1450.45 163.043 1446.08 160.075C1444.76 159.172 1442.58 158.065 1443.45 155.971C1444.32 154.716 1445.6 153.8 1447.06 153.38C1451.97 151.468 1456.93 149.763 1461.72 148.047C1459.48 145.948 1457.42 144.158 1455.57 142.225C1455.34 141.879 1455.19 141.483 1455.14 141.069C1455.09 140.655 1455.14 140.235 1455.28 139.843C1455.51 139.394 1456.76 139.16 1457.48 139.306C1463.8 140.53 1470.06 141.882 1473.97 147.836C1474.43 148.44 1475.07 148.88 1475.8 149.087C1480.68 150.579 1485.59 151.981 1490.6 153.472C1486.88 148.125 1482.85 142.955 1477.25 139.42C1473.33 136.941 1469.25 134.668 1464.47 134.297C1455.56 133.553 1447.69 136.376 1440.44 141.291C1440.19 141.52 1439.98 141.798 1439.84 142.109C1439.7 142.42 1439.62 142.757 1439.61 143.099C1439.56 148.096 1436.99 151.906 1433.94 155.467C1430.89 159.028 1428.01 162.209 1424.94 165.494C1424.13 166.167 1423.24 166.728 1422.28 167.165C1421.63 166.179 1421.16 165.091 1420.87 163.948C1420.49 157.859 1422.5 151.866 1426.48 147.251C1426.81 146.876 1427.18 146.548 1427.48 146.167C1427.79 145.785 1427.86 145.556 1427.73 145.759C1424.44 145.635 1421.1 145.637 1417.77 145.325C1417.32 145.193 1416.91 144.955 1416.56 144.632C1416.22 144.308 1415.96 143.909 1415.8 143.465C1415.63 142.944 1416.4 141.823 1417.06 141.406C1419.37 139.669 1421.88 138.219 1424.54 137.087C1428.69 135.685 1433.05 134.802 1436.98 138.152C1437.33 138.328 1437.71 138.425 1438.1 138.437C1438.49 138.449 1438.87 138.376 1439.23 138.222C1441.31 137.357 1443.31 136.279 1445.36 135.322C1452.91 131.842 1460.69 130.218 1468.97 132.314C1468.35 131.552 1467.74 130.795 1467.1 130.041C1465.25 128.07 1463.86 125.704 1463.06 123.121C1462.25 120.538 1462.04 117.806 1462.44 115.131C1462.81 112.878 1463.89 112.326 1465.34 113.68C1471.23 118.66 1475.15 125.565 1476.43 133.166C1476.5 134.039 1476.78 134.883 1477.24 135.63C1477.7 136.376 1478.33 137.005 1479.08 137.465C1485.95 142.495 1491.61 148.483 1494.69 156.697C1496.86 162.536 1497.58 168.814 1496.77 174.987C1498.55 170.775 1500.17 166.578 1501.51 162.283C1502.31 159.684 1503.79 156.521 1502.94 154.368C1502.22 152.441 1498.87 151.419 1496.6 150.121C1490.27 146.506 1486.98 141.169 1487.38 133.796C1487.47 132.002 1487.2 129.423 1489.47 129.157C1490.65 129.022 1492.4 130.786 1493.36 132.067C1496.4 136.125 1499.2 140.357 1502.25 144.777C1501.82 142.005 1502.33 139.17 1503.7 136.726C1505.07 134.282 1507.23 132.372 1509.82 131.302C1510.75 130.853 1512.45 130.265 1512.81 130.659C1513.48 131.597 1513.8 132.742 1513.71 133.891C1513.2 141.06 1510.29 147.426 1507.25 153.829C1505.56 157.375 1504.37 161.117 1502.94 164.735C1505.58 163.626 1507.49 162.204 1509.57 161.114C1511.6 159.976 1513.83 159.255 1516.14 158.993C1518.45 158.731 1520.79 158.934 1523.02 159.589C1523.46 159.755 1523.86 160.011 1524.2 160.34C1524.53 160.669 1524.8 161.065 1524.97 161.502C1525.14 162.022 1524.38 163.041 1523.8 163.585C1522.58 164.685 1521.29 165.69 1519.92 166.592C1515.73 169.348 1511.49 172.639 1506.2 172C1501.78 171.441 1499.86 172.907 1498.31 176.837C1496.95 180.247 1494.15 182.987 1492.59 186.38C1487.96 196.441 1480.22 204.749 1470.52 210.086C1458.84 216.398 1446.02 217.428 1433.01 216.412C1430.64 216.142 1428.29 215.728 1425.97 215.172C1424.22 214.832 1423.15 214.925 1422.49 217.181C1421.57 219.576 1420.22 221.78 1418.5 223.684C1414.29 228.55 1407.77 228.661 1402.31 230.933C1400.64 231.635 1400.12 230.343 1400.83 228.731ZM1399.34 187.252C1396.28 186.263 1393.07 185.675 1389.34 184.777C1392.57 191.405 1401.74 195.048 1408.07 192.615C1408.46 192.369 1408.81 192.053 1409.1 191.682C1408.76 191.338 1408.38 191.04 1407.97 190.796C1405.04 189.604 1402.23 188.244 1399.27 187.293L1399.34 187.252ZM1391.5 169.492C1394.06 177.664 1399.58 181.938 1406.47 185.702C1403.76 178.026 1398.48 173.52 1391.43 169.533L1391.5 169.492ZM1391.78 113.101C1391.35 112.543 1390.74 112.158 1390.05 112.018C1389.81 111.989 1389.24 112.881 1389.01 113.461C1387.26 118.857 1388.36 124.106 1390.15 129.241C1391.03 131.769 1392.24 134.184 1393.59 137.339C1397.47 128.348 1396.7 120.551 1391.71 113.155L1391.78 113.101ZM1401.9 88.5103C1397.4 83.4273 1391.59 81.0237 1384.61 80.1801C1385.31 81.7809 1386.32 83.2257 1387.58 84.4285C1388.84 85.6313 1390.34 86.5673 1391.97 87.1806C1394.84 88.3916 1397.87 89.2297 1400.83 90.1585C1401.42 90.2476 1402.02 90.244 1402.61 90.1479C1402.42 89.5666 1402.13 89.0208 1401.77 88.533L1401.9 88.5103ZM1407.87 86.7897C1408.96 82.9096 1408.56 78.7607 1406.76 75.1513C1405.96 76.8676 1405.37 78.6718 1404.98 80.5273C1404.93 82.6467 1405.13 84.765 1405.58 86.8384C1405.8 87.8217 1406.09 88.7883 1406.44 89.7312C1406.97 88.8032 1407.4 87.8255 1407.73 86.8123L1407.87 86.7897ZM1358.07 80.6789C1356.89 82.835 1355.95 85.1167 1355.28 87.4815C1355.03 88.3035 1355.54 89.3562 1355.7 90.3135L1358.24 89.0725C1362.79 85.1534 1367.99 81.421 1371 75.5353C1371.39 74.9038 1371.68 74.2146 1371.85 73.4935C1371.89 73.2076 1370.84 72.4628 1370.73 72.5276C1366.44 75.4717 1360.76 76.0119 1357.93 80.7015L1358.07 80.6789ZM1365.16 62.7533C1360.36 60.6317 1355.21 60.6246 1350.07 60.857C1349.49 60.9753 1348.94 61.1874 1348.43 61.4849C1348.6 62.1433 1348.87 62.7703 1349.24 63.3415C1352.02 66.6199 1355.98 68.6704 1360.26 69.0485C1363.21 69.2227 1366.25 69.0203 1369.23 69.2145C1372.2 69.4088 1371.56 68.3344 1370.69 66.3292C1368.9 64.9819 1367.01 63.7929 1365.02 62.7759L1365.16 62.7533ZM1393.07 52.7524C1390.37 50.3622 1387.55 48.1341 1384.59 46.0801C1381.77 44.4412 1378.84 43.0022 1375.82 41.7735C1375.23 41.6132 1374.63 41.5342 1374.02 41.5387L1374.29 43.4053C1377.08 47.2021 1380.91 50.1088 1385.31 51.7728C1387.6 52.4949 1389.81 53.2796 1392.08 53.9957C1392.43 54.0526 1392.79 54.0607 1393.14 54.02C1393.12 53.5994 1393.21 52.9692 1392.96 52.7588L1393.07 52.7524ZM1399.09 55.0264C1400.66 53.4731 1401.91 51.6256 1402.76 49.589C1404.21 44.8361 1402.41 40.2321 1401.27 35.684C1400.59 33.994 1399.39 34.1594 1398.81 35.357C1397.47 37.5869 1396.59 40.0606 1396.21 42.6359C1396.28 46.4971 1396.63 50.3485 1397.25 54.1618C1397.26 55.6369 1398.1 56.0665 1398.98 55.0328L1399.09 55.0264ZM1410.42 69.4021C1410.53 69.5849 1410.73 69.7109 1410.89 69.8612C1410.85 69.7769 1410.9 69.6137 1410.87 69.5937C1410.73 69.5195 1410.58 69.4555 1410.42 69.4021ZM1424.6 79.9596C1427.49 76.6461 1429.46 72.639 1430.33 68.3302C1430.47 67.7206 1430.56 67.1002 1430.59 66.4757C1430.64 65.433 1430.61 64.4027 1430.65 63.346L1426.67 64.1275C1425.34 66.3387 1424.26 68.6867 1423.43 71.131C1423.02 73.8456 1422.89 76.5969 1423.05 79.3395C1423.1 79.7753 1423.21 80.2003 1423.4 80.598C1423.84 80.4666 1424.25 80.2496 1424.6 79.9596ZM1454.66 116.138C1455.26 115.738 1455.84 115.298 1456.39 114.822C1455.7 114.317 1455.02 113.398 1454.34 113.38C1451.15 113.195 1447.95 113.328 1444.78 113.78C1442.07 114.59 1439.44 115.657 1436.93 116.964L1437.27 117.839C1443.16 118.557 1449.07 119.268 1454.64 116.11L1454.66 116.138ZM1437.59 109.946C1439.57 104.125 1439.98 97.8826 1438.78 91.8474C1438.42 91.0395 1437.98 90.2715 1437.46 89.556C1436.13 91.9 1434.93 94.3105 1433.84 96.7783C1432.25 101.075 1433.23 105.436 1433.97 109.732C1434.25 111.279 1434.7 112.779 1435.08 114.305C1436.05 112.935 1436.89 111.476 1437.59 109.946ZM1390.12 139.137C1384.37 135.531 1377.66 133.738 1370.89 133.989C1369.32 134.068 1367.79 134.355 1366.23 134.542C1373.36 138.182 1380.21 142.399 1388.45 142.572C1388.7 142.607 1388.95 142.594 1389.2 142.535C1390.42 142.056 1391.61 141.534 1392.82 141.026C1391.94 140.329 1391.03 139.68 1390.09 139.08L1390.12 139.137ZM1431.94 193.714C1433.47 192.087 1434.65 190.169 1435.42 188.074C1436.2 185.98 1436.54 183.75 1436.44 181.518C1436.44 181.329 1435.39 180.89 1435.03 181.056C1433.77 181.602 1432.68 182.467 1431.85 183.564C1431.03 184.662 1430.5 185.955 1430.32 187.319C1430.16 189.533 1430.15 191.756 1430.29 193.972C1431.05 193.869 1431.68 193.955 1431.98 193.785L1431.94 193.714ZM1458.18 152.059C1454.75 153.12 1451.39 154.424 1448 155.65C1447.45 155.878 1446.92 156.143 1446.4 156.443C1446.74 157.054 1447.19 157.595 1447.73 158.036C1449.4 158.887 1451.27 159.286 1453.14 159.191C1455.01 159.097 1456.83 158.513 1458.4 157.498C1462.47 155.301 1466.4 152.879 1470.44 150.546C1466.06 148.952 1462.15 150.82 1458.18 152.059ZM1459.71 141.507L1459.26 142.479C1462.18 145.366 1465.49 147.336 1469.76 147.061L1470.16 146.158L1459.71 141.507ZM1433.56 138.835C1429.32 137.625 1425.48 139.002 1421.22 140.861L1419.82 142.718C1420.64 142.938 1421.54 143.488 1422.28 143.32C1426.13 142.431 1429.94 141.39 1433.76 140.35C1434.09 140.185 1434.38 139.953 1434.62 139.666C1434.27 139.382 1433.96 138.942 1433.56 138.835ZM1433.45 144.519C1427.64 148.905 1423.13 154.676 1423.53 163.238C1428.47 157.856 1433.76 153.58 1436.47 147.182C1436.91 145.785 1437.22 144.351 1437.4 142.896C1436.01 143.253 1434.68 143.779 1433.42 144.462L1433.45 144.519ZM1464.86 116.173C1464.31 122.748 1467.12 127.684 1474.28 133.112C1472.69 126.71 1469.43 120.844 1464.82 116.117L1464.86 116.173ZM1508.34 145.95C1509.6 142.299 1510.59 138.54 1511.63 134.807C1511.68 134.205 1511.64 133.599 1511.5 133.012L1510.07 133.388C1505.99 136.472 1503.97 140.241 1504.68 145.193C1504.95 147.118 1505.34 149.028 1505.69 150.949C1506.72 149.364 1507.6 147.692 1508.34 145.95ZM1491.49 133.428C1491.1 133.066 1490.69 132.729 1490.25 132.418C1490.02 132.849 1489.85 133.312 1489.76 133.793C1489.65 138.633 1490.83 142.976 1494.93 146.004C1496.86 147.387 1498.88 148.597 1501.38 150.23C1499.58 143.851 1496.18 138.039 1491.49 133.356L1491.49 133.428ZM1504.26 169.934C1509.02 170.539 1512.95 168.401 1516.69 165.853C1518.41 164.857 1520.14 163.86 1521.86 162.864C1522.15 162.653 1522.4 162.406 1522.62 162.128C1522.26 161.905 1521.87 161.726 1521.47 161.593C1518.04 160.782 1514.43 161.356 1511.43 163.192C1508.73 164.748 1506.18 166.52 1503.59 168.222C1503.22 168.551 1502.89 168.924 1502.6 169.335C1503.13 169.576 1503.69 169.753 1504.26 169.862L1504.26 169.934ZM1424.06 191.18C1422.64 187.367 1421.24 183.546 1419.76 179.752C1419.41 179.152 1418.96 178.612 1418.44 178.151C1417.99 178.829 1417.65 179.576 1417.44 180.363C1416.98 185.311 1419.59 188.733 1422.93 191.755L1424.06 191.18ZM1403.61 205.87C1403.27 206.208 1403.02 206.625 1402.87 207.084C1404.31 208.373 1405.66 210.22 1407.36 210.715C1410.79 211.544 1414.27 212.154 1417.77 212.54C1413.95 208.412 1408.66 207.381 1403.58 205.886L1403.61 205.87ZM1418.39 212.576L1418.09 212.601L1418.14 212.699C1418.14 212.699 1418.31 212.624 1418.36 212.592L1418.39 212.576ZM1419.8 216.956C1414.48 220.288 1407.62 220.724 1404.31 227.078C1412.31 226.545 1418.16 222.774 1419.77 216.972L1419.8 216.956Z" fill="black" fill-opacity="0.08"/>
</g>
<defs>
<clipPath id="clip0_0_138">
<rect width="99.9973" height="50.3312" fill="white" transform="matrix(-0.866025 0.5 0.5 0.866025 86.6003 188.415)"/>
</clipPath>
<clipPath id="clip1_0_138">
<rect width="147.344" height="197.969" fill="white" transform="matrix(-0.866025 0.5 0.5 0.866025 1437.83 0.401978)"/>
</clipPath>
</defs>
</svg>
