<svg width="49" height="23" viewBox="0 0 49 23" fill="none" xmlns="http://www.w3.org/2000/svg">
<path d="M48.01 19.4036C49.3262 20.6181 47.5283 22.148 44.6331 22.2959C41.1857 22.4713 38.7293 20.8002 40.2841 19.3898C40.4092 19.2762 40.3994 19.2031 40.1804 19.1187C39.8069 18.9755 39.4584 18.8184 39.084 18.6605C38.6006 18.9429 37.9706 19.0047 37.2834 19.0047C35.5821 19.0043 33.8807 19.0122 32.1802 19.0059C31.8639 19.0047 31.7281 19.0544 31.6289 19.1885C31.0543 19.9574 30.4672 20.7242 29.8775 21.491C29.4173 22.0904 28.496 22.3631 27.1494 22.3072C26.875 22.2959 26.5989 22.2934 26.3246 22.2888C25.1933 22.2712 24.3891 21.902 24.4302 21.3737C24.5044 20.436 24.6339 19.4996 24.7278 18.5628C24.7385 18.4446 24.7019 18.321 24.6304 18.2074C24.1845 17.4911 23.7288 16.7756 23.2552 16.0627C23.1944 15.9699 23.0496 15.8739 22.8843 15.8154C22.0345 15.5126 21.1731 15.2177 20.2983 14.9316C20.1535 14.884 19.9123 14.861 19.7389 14.8782C18.3646 15.0127 16.9965 15.1605 15.6249 15.3013C14.9216 15.3739 14.3462 15.2257 14.2273 14.9467C14.1013 14.6535 14.4561 14.4175 15.1647 14.3402C16.7043 14.1719 18.2475 14.009 19.789 13.8453C20.2912 13.7918 20.7755 13.8152 21.149 13.9906C22.2186 14.4943 23.5027 14.5887 24.9833 14.5779C30.62 14.5369 36.2567 14.5482 41.8943 14.5415C42.1517 14.5411 42.4144 14.5436 42.6673 14.5633C43.4742 14.6259 43.9165 15.0127 43.551 15.3539C43.3276 15.5627 43.0372 15.7561 42.7682 15.9537C41.9381 16.5664 41.1035 17.1778 40.243 17.8093C40.7684 18.0332 41.2447 18.2491 41.7585 18.4442C41.8773 18.4897 42.157 18.4976 42.3045 18.4647C44.3785 17.9985 46.9564 18.4321 48.01 19.4036ZM45.5258 20.786C46.1397 20.5049 46.2943 20.0597 45.9029 19.6993C45.491 19.3192 44.6778 19.1421 43.6162 19.2311C44.0791 19.4345 44.5062 19.607 44.8932 19.7962C45.2318 19.962 45.2515 20.1641 45.0254 20.3625C44.7895 20.5676 44.3847 20.6482 43.9192 20.5972C43.6672 20.5701 43.4304 20.4853 43.2213 20.4064C42.8746 20.2765 42.5556 20.129 42.1972 19.9774C42.0319 20.3809 42.4501 20.766 43.1972 20.9489C43.9755 21.1394 44.8941 21.0751 45.5258 20.786ZM29.52 19.0218C28.5782 19.0218 27.7239 19.0218 26.8116 19.0218C26.7205 19.7795 26.6302 20.53 26.5382 21.2906C26.8563 21.3052 27.1181 21.3365 27.3656 21.3219C27.5381 21.3119 27.7901 21.2551 27.8419 21.1899C28.4129 20.4791 28.9517 19.7636 29.52 19.0218Z" fill="white"/>
<path d="M43.1009 10.8598C43.553 10.8427 44.0052 10.8264 44.4573 10.8093C43.9078 10.9755 43.3332 11.1317 42.6773 11.1317C42.6505 11.1317 42.6228 11.1317 42.596 11.1313C42.3672 11.1267 41.9884 10.9797 41.9687 10.8853C41.9598 10.8448 41.9777 10.8068 42.0125 10.7721C42.1072 10.6819 42.336 10.6188 42.6157 10.6255C42.8543 10.6313 43.0893 10.6526 43.4556 10.6748C43.2626 10.7441 43.1697 10.7775 43.0776 10.8105C43.0848 10.8276 43.0919 10.8435 43.1009 10.8598Z" fill="#4E7C32"/>
<path d="M43.8948 10.0758C43.9082 10.0975 43.9208 10.1188 43.9342 10.1405C43.3426 10.3949 43.0102 10.4262 42.5732 10.2174C43.0576 10.1656 43.4758 10.1209 43.8948 10.0758Z" fill="#4E7C32"/>
<path d="M43.5424 9.36159C43.5549 9.38164 43.5656 9.40127 43.5763 9.42132C43.3601 9.4468 43.0295 9.52574 42.9508 9.48815C42.7319 9.38415 42.9026 9.32567 43.176 9.33695C43.2975 9.34196 43.4209 9.35282 43.5424 9.36159Z" fill="#4E7C32"/>
<path d="M44.2353 11.2996C43.7027 11.5899 43.1112 11.8363 42.3391 11.9566C42.0004 12.01 41.3588 11.8317 41.3231 11.698C41.3061 11.6337 41.3267 11.5702 41.3776 11.5122C41.4956 11.3785 41.7735 11.2758 42.1077 11.2645C42.2837 11.2582 42.4615 11.2612 42.6724 11.2624C42.7269 11.2628 42.7841 11.2628 42.844 11.2628C42.7502 11.3576 42.6885 11.4203 42.5661 11.5427C43.1898 11.4524 43.7125 11.3756 44.2353 11.2996Z" fill="#4E7C32"/>
<path d="M43.986 9.67233C43.7403 9.74208 43.5473 9.81308 43.3283 9.85276C43.2238 9.87155 43.0549 9.84357 42.9477 9.81183C42.9048 9.7993 42.9137 9.69948 42.9691 9.67609C43.0477 9.64267 43.1943 9.63056 43.3096 9.63223C43.5133 9.63515 43.7153 9.6552 43.986 9.67233Z" fill="#4E7C32"/>
<path d="M42.3287 7.91601C42.4744 7.90598 42.6263 7.91309 42.8791 7.91309C42.6977 7.99244 42.5744 8.06094 42.4207 8.10855C42.3466 8.13194 42.1875 8.13528 42.1259 8.11273C42.0642 8.09059 42.0347 8.01499 42.0696 7.97908C42.1026 7.94608 42.234 7.92269 42.3287 7.91601Z" fill="#4E7C32"/>
<path d="M42.5155 9.34492L42.5369 9.3374C42.5307 9.36079 42.5244 9.38418 42.52 9.40715C42.5191 9.3871 42.5173 9.36622 42.5155 9.34492Z" fill="white"/>
<path d="M42.5206 9.40756C42.5438 9.82314 42.3687 10.204 41.9522 10.5971C41.9058 10.6401 41.8602 10.6839 41.8137 10.727C41.56 10.965 41.3035 11.2035 41.0676 11.447C40.6557 11.8709 40.3018 12.3091 40.1258 12.7823C40.241 12.7936 40.317 12.8028 40.393 12.8086C40.4841 12.8153 40.5779 12.8186 40.762 12.8287L40.8925 12.832C41.5072 12.8696 41.3848 13.0358 41.2767 13.253C41.1203 13.5671 41.1033 13.8966 40.9988 14.2174C40.9782 14.2788 40.8344 14.3778 40.7414 14.3794C40.0364 14.3932 39.3296 14.3924 38.6246 14.3799C38.5272 14.3782 38.3753 14.2917 38.3538 14.2362C38.2064 13.8586 38.0929 13.4785 37.9553 13.0997C37.9124 12.9832 37.9642 12.9076 38.235 12.8855C38.6326 12.8525 39.0285 12.8161 39.4744 12.7769C39.6423 12.5054 39.822 12.2151 40.0248 11.8864L40.0203 11.8409C40.099 11.8079 40.1758 11.7903 40.2035 11.7619C40.4948 11.4671 40.7772 11.1701 41.0667 10.8748C41.3643 10.5699 41.2651 10.2705 41.0068 9.97391C40.9157 9.8695 40.821 9.76299 40.6959 9.66651C40.233 9.30565 40.0016 8.92015 40.1365 8.43357C40.2205 8.75684 40.2893 9.0208 40.359 9.28518C40.4287 9.28226 40.4975 9.28017 40.5672 9.27767C40.5672 9.18327 40.5672 9.08972 40.5672 8.96818C40.6494 8.93184 40.787 8.8717 40.9925 8.78148C40.8335 8.74681 40.7066 8.71967 40.5797 8.6921C40.5922 8.67205 40.6038 8.65242 40.6164 8.63238C41.3276 8.75517 41.2481 8.46239 41.409 8.32205C41.4393 8.29574 41.4706 8.26859 41.501 8.24144C41.644 8.10904 41.7583 7.96161 41.5752 7.7912C41.6261 7.82127 41.7271 7.85427 41.7199 7.881C41.652 8.13034 41.702 8.41477 41.4554 8.62068C40.9014 9.08178 40.821 9.50321 41.3938 9.96807C41.5939 10.1301 41.6198 10.3394 41.7423 10.5599C42.1363 10.3452 42.3865 10.1264 42.4196 9.85321C42.4339 9.7041 42.4804 9.55583 42.5206 9.40756Z" fill="white"/>
<path d="M42.3722 8.42269C42.6251 8.43982 42.8673 8.48952 43.1916 8.53755C42.8887 8.60688 42.5885 8.69209 42.2659 8.7397C42.1479 8.75682 41.9353 8.70044 41.8316 8.64865C41.7771 8.62067 41.8209 8.5033 41.8995 8.47657C42.022 8.43439 42.2194 8.41183 42.3722 8.42269Z" fill="#4E7C32"/>
<path d="M41.7511 12.1595C41.7779 12.1691 41.8047 12.1783 41.8315 12.1875C41.5214 12.4001 41.2132 12.6123 40.8924 12.8324L40.7619 12.8291C40.3777 12.5826 40.4384 12.3542 40.7119 12.1382C40.7628 12.0973 40.971 12.099 41.198 12.0689C41.0979 12.1934 41.0398 12.266 40.9478 12.3817C41.2677 12.2928 41.5089 12.2264 41.7511 12.1595Z" fill="#4E7C32"/>
<path d="M41.4023 8.00464C41.3576 8.08859 41.3067 8.15917 41.2477 8.21639C41.0717 8.38889 40.8259 8.44068 40.4435 8.37761C40.7375 8.26276 41.0306 8.14873 41.4023 8.00464Z" fill="#4E7C32"/>
<path d="M40.1597 10.6225C40.1802 10.7265 40.3554 10.8455 40.0114 10.9362C39.6638 11.0276 39.3251 11.1128 38.9909 10.9788C38.411 10.747 37.8703 10.493 37.3154 10.2483C37.3485 10.2295 37.3824 10.2103 37.4155 10.1915C37.9186 10.3151 38.4217 10.4391 39.015 10.5845C38.9703 10.4726 38.9444 10.4074 38.9194 10.3418C39.5771 10.2754 40.1105 10.3907 40.1597 10.6225Z" fill="#4E7C32"/>
<path d="M40.7119 10.1397C40.1507 10.3765 39.3099 10.2433 38.6361 9.82688C39.6575 9.81852 40.2785 9.90999 40.7119 10.1397Z" fill="#4E7C32"/>
<path d="M40.0182 11.8408L40.0226 11.8864C39.8618 11.9432 39.759 11.9795 39.5669 12.0472C39.3131 11.7949 39.0781 11.5627 38.844 11.3305C38.8806 11.3179 38.9155 11.3054 38.9521 11.2937C39.0772 11.3777 39.2023 11.462 39.3935 11.5898C39.4498 11.4712 39.4713 11.4253 39.4981 11.3693C40.0753 11.424 39.8671 11.6671 40.0182 11.8408Z" fill="#4E7C32"/>
<path d="M40.2494 9.43137C39.8169 9.74044 39.1378 9.6757 38.4185 9.26514C39.01 9.31902 39.6016 9.37289 40.2494 9.43137Z" fill="#4E7C32"/>
<path d="M39.5177 8.34589C39.5115 8.37387 39.507 8.40227 39.5016 8.43067C39.0924 8.61194 38.7421 8.42775 38.3704 8.38014C38.3802 8.35382 38.39 8.32751 38.3998 8.30078C38.7725 8.31582 39.1442 8.33043 39.5177 8.34589Z" fill="#4E7C32"/>
<path d="M39.7553 8.81445C39.3005 8.99321 39.0163 8.96147 38.389 8.67871C38.902 8.72967 39.2862 8.76767 39.7553 8.81445Z" fill="#4E7C32"/>
<path d="M38.7398 11.7427C38.8872 11.8053 38.9801 11.8956 39.1016 11.9758C38.4118 12.1558 38.1187 12.1462 37.6478 11.8956C37.2564 11.6867 36.9177 11.4558 36.5585 11.2373C36.2082 11.2457 35.9446 11.4721 35.4746 11.2937C36.0036 11.2018 36.4164 11.107 36.9901 11.1964C37.7005 11.3075 38.2161 11.5218 38.7398 11.7427Z" fill="#4E7C32"/>
<path d="M36.7715 11.7239C36.784 11.7385 36.7974 11.7527 36.809 11.7669C36.4078 11.8316 36.0128 11.9093 35.6027 11.9557C35.298 11.9899 35.0076 11.9089 35.0317 11.7644C35.0424 11.6976 35.3802 11.6287 35.5928 11.5881C35.7001 11.5681 35.86 11.6107 36.0271 11.6278C35.9181 11.6612 35.8439 11.6834 35.7707 11.7055C35.7841 11.7184 35.7984 11.731 35.8118 11.7439C36.1308 11.7372 36.4516 11.7306 36.7715 11.7239Z" fill="#4E7C32"/>
<path d="M36.663 12.0902C36.6826 12.1065 36.7032 12.1236 36.7229 12.1403C36.3181 12.2723 35.9222 12.4102 35.504 12.5329C35.2342 12.6123 34.9232 12.6169 34.7239 12.4845C34.6265 12.4198 34.5899 12.3112 34.6238 12.2318C34.6935 12.0689 34.9974 12.0677 35.2824 12.0723C35.3628 12.0739 35.4433 12.0789 35.5657 12.0848C35.555 12.1416 35.5478 12.1825 35.5362 12.2489C35.9383 12.1917 36.3011 12.1408 36.663 12.0902Z" fill="#4E7C32"/>
<path d="M35.6176 10.4555C35.5943 10.5044 35.5961 10.5286 35.58 10.5315C35.2253 10.5862 34.8688 10.6401 34.5095 10.6877C34.4961 10.6894 34.4023 10.623 34.4193 10.6021C34.4586 10.5574 34.5274 10.5027 34.615 10.4864C34.8607 10.4405 35.119 10.4033 35.379 10.382C35.4549 10.3753 35.555 10.4338 35.6176 10.4555Z" fill="#4E7C32"/>
<path d="M35.9112 10.0049C35.6101 10.0696 35.4215 10.1293 35.216 10.1456C35.1186 10.1536 34.9908 10.0796 34.8773 10.0433C34.9917 10.0011 35.1025 9.92927 35.2214 9.92551C35.4001 9.92091 35.5841 9.96435 35.9112 10.0049Z" fill="#4E7C32"/>
<path d="M34.7961 9.52283C34.8408 9.53035 34.8873 9.53745 34.9337 9.54455C34.7693 9.77468 34.646 10.0136 34.4315 10.2324C34.2126 10.4551 34.1778 10.6622 34.3717 10.8873C34.5379 11.0816 34.68 11.2804 34.8444 11.4913C34.8962 11.4771 34.9757 11.4549 35.0061 11.4466C34.5209 12.0104 34.0232 12.5906 33.504 13.1928C33.7578 13.215 33.865 13.2242 34.0312 13.2388L34.2341 13.2359C34.6022 13.2897 34.5504 13.4109 34.4637 13.5683C34.3449 13.7863 34.2975 14.0152 34.2689 14.2416C34.251 14.3849 34.1063 14.4233 33.8471 14.4279C33.7167 14.43 33.588 14.4371 33.4593 14.4417C32.3852 14.4776 32.3209 14.4479 32.1967 13.9446C32.1467 13.7442 32.0421 13.5466 31.9501 13.3152C32.2503 13.2851 32.5613 13.2597 32.8642 13.2204C32.9848 13.205 33.1546 13.1703 33.1859 13.126C33.3119 12.9489 33.3941 12.7647 33.4906 12.5843C32.8222 12.6069 32.9768 12.3112 32.7043 12.1666C33.2315 12.1366 33.5612 12.1971 33.5326 12.4912C33.9481 12.1625 34.4843 11.8551 34.4226 11.4988C34.3627 11.1513 33.9874 10.8151 33.7739 10.5064C33.7864 10.5139 33.8337 10.5407 33.8954 10.5762C33.9901 10.4045 34.0705 10.2571 34.1581 10.0963C34.4315 10.0829 34.554 9.98643 34.7961 9.52283Z" fill="white"/>
<path d="M34.2504 12.6557C34.379 12.7572 34.4532 12.9 34.8097 12.8073C34.6105 12.9418 34.4121 13.0767 34.1878 13.2287C34.2039 13.2304 34.2191 13.2329 34.2352 13.235L34.0323 13.2379C33.867 13.0212 33.8045 12.824 34.2504 12.6557Z" fill="white"/>
<path d="M33.5877 11.511C33.6654 11.5837 33.6136 11.7633 33.5091 11.7867C33.2839 11.8372 32.9086 11.8723 32.7361 11.8172C32.3072 11.6814 31.956 11.4905 31.5745 11.3222C31.5986 11.3063 31.6227 11.2905 31.6486 11.275C32.0105 11.3552 32.3715 11.4358 32.7808 11.5265C32.7504 11.4513 32.7361 11.4162 32.7138 11.3644C33.0739 11.3377 33.4197 11.3519 33.5877 11.511Z" fill="#4E7C32"/>
<path d="M34.0971 11.1547C33.6342 11.3777 33.1651 11.3138 32.6119 11.0114C32.6298 10.9893 32.6486 10.9667 32.6664 10.9446C33.1231 11.0114 33.5806 11.0787 34.0971 11.1547Z" fill="#4E7C32"/>
<path d="M33.7153 10.6927C33.2497 10.8836 32.7958 10.828 32.2882 10.5386C32.8047 10.5945 33.2193 10.6388 33.7153 10.6927Z" fill="#4E7C32"/>
<path d="M32.7907 12.5873C32.1161 12.761 31.411 12.5196 31.0116 11.9958C31.8113 12.0669 32.3654 12.2778 32.7907 12.5873Z" fill="#4E7C32"/>
<path d="M29.4492 12.9631C29.618 12.9706 29.7968 12.9948 30.0657 13.0186C29.803 13.0947 29.6038 13.1707 29.3759 13.2112C29.2579 13.2321 29.0658 13.2037 28.9505 13.1682C28.9077 13.1544 28.9023 13.0771 28.9309 13.0353C28.938 13.0253 28.9479 13.017 28.9604 13.0128C29.0658 12.9744 29.2365 12.9593 29.3768 12.961C29.4009 12.9614 29.425 12.9618 29.4492 12.9631Z" fill="#4E7C32"/>
<path d="M29.6025 12.6683C29.7669 12.6837 29.9233 12.7171 30.1619 12.7556C29.9188 12.7919 29.7401 12.8295 29.5543 12.8412C29.531 12.8429 29.506 12.8424 29.4801 12.8412C29.3898 12.8362 29.2942 12.8145 29.2156 12.7927C29.2013 12.7886 29.2058 12.7506 29.2245 12.7205C29.2352 12.7017 29.2513 12.6862 29.2683 12.6825C29.3639 12.6616 29.4935 12.6583 29.6025 12.6683Z" fill="#4E7C32"/>
<path d="M28.9837 12.5889C29.0114 12.6219 29.0069 12.6603 28.9846 12.7029C28.9345 12.7973 28.7933 12.9084 28.7218 13.0045C28.5699 13.2079 28.4073 13.4088 28.2456 13.6147C28.5065 13.6506 28.6834 13.6748 28.8729 13.7016C28.8353 13.8352 28.7996 13.9526 28.771 14.0708C28.6968 14.369 28.3314 14.4809 27.6978 14.3836C27.5977 14.3682 27.5048 14.2934 27.4753 14.2383C27.3931 14.0779 27.3439 13.9146 27.2725 13.7254C27.8024 13.6911 28.2456 13.5959 28.1446 13.2998C28.0329 13.2338 27.9212 13.1674 27.8095 13.1006C27.8461 13.083 27.8837 13.0655 27.9203 13.0479C28.0409 13.0893 28.1598 13.1315 28.2858 13.1753C28.7049 12.8533 28.9819 12.533 28.4895 12.1625C28.3921 12.0886 28.4386 11.9507 28.5065 11.8568C28.5976 11.731 28.7764 11.6204 28.9729 11.503C28.4198 11.8739 28.6718 12.2218 28.9837 12.5889Z" fill="white"/>
<path d="M28.209 12.6377C28.2483 12.672 28.2251 12.7564 28.1688 12.7718C28.0598 12.8015 27.8695 12.829 27.7837 12.8044C27.5236 12.7292 27.2967 12.629 27.05 12.5358C27.3834 12.5358 27.6613 12.5266 27.9356 12.5404C28.0357 12.5446 28.1572 12.5935 28.209 12.6377Z" fill="#4E7C32"/>
<path d="M27.7979 13.2279C27.3118 13.3465 27.0777 13.2772 26.7917 12.9176C27.1116 13.0162 27.4307 13.1147 27.7979 13.2279Z" fill="#4E7C32"/>
<path d="M25.957 7.08828C25.9704 9.10184 25.966 11.115 25.9597 13.1285C25.9588 13.6573 25.3056 14.0324 24.3396 14.0704C24.1913 14.0762 24.0081 14.0641 23.8902 14.0265C23.4335 13.8833 22.9591 13.7446 22.5695 13.5671C22.3845 13.4823 22.3005 13.3136 22.2996 13.1833C22.2835 11.1852 22.2889 9.18746 22.2889 7.18894C22.2889 7.12796 22.33 7.05696 22.2782 7.00934C22.1933 6.93333 22.0449 6.87235 21.9234 6.80469C21.8126 6.86776 21.6866 6.92623 21.5964 6.99514C21.5517 7.02939 21.5731 7.08202 21.5615 7.14049C21.1022 7.14049 20.6563 7.14049 20.1666 7.14049C20.1666 6.43046 20.1666 5.71709 20.1666 4.98367C21.6795 4.94149 23.1369 4.93898 24.3691 5.4289C25.4682 5.86661 25.9534 6.4313 25.957 7.08828Z" fill="white"/>
<path d="M20.3976 15.835C21.3859 16.0985 21.6673 16.4469 21.6343 16.9731C21.5458 18.4107 21.6101 19.85 21.603 21.2889C21.6003 21.7809 20.8774 22.1964 19.898 22.2887C18.8383 22.3882 17.8383 22.1622 17.4273 21.7065C17.2995 21.5649 17.2414 21.4004 17.2379 21.2458C17.2209 20.398 17.2289 19.5497 17.2289 18.7018C17.2289 17.8235 17.2352 16.9451 17.2227 16.0668C17.2218 15.9215 17.2906 15.8496 17.6319 15.83C18.0617 15.8045 18.5023 15.7669 18.9035 15.6942C19.4932 15.5869 19.898 15.7018 20.3976 15.835Z" fill="white"/>
<path d="M21.5503 7.90349C21.5503 9.6723 21.5503 11.4399 21.5503 13.2308C20.0848 12.8996 18.7141 13.2905 17.2638 13.3636C17.254 13.334 17.2397 13.2989 17.2298 13.2638C17.2209 13.2341 17.2191 13.2041 17.212 13.1565C16.9278 13.1565 16.6454 13.1565 16.3407 13.1565C16.3264 13.2103 16.2934 13.2625 16.3032 13.3127C16.3273 13.4438 16.2121 13.4973 15.9315 13.5223C15.4105 13.5691 14.886 13.6234 14.3829 13.7019C13.1515 13.8928 12.4188 14.5143 12.7146 15.0911C13.0416 15.7297 14.248 16.1231 15.5973 16.0317C15.8037 16.0175 16.0101 16.0049 16.2746 15.9878C16.2835 16.0617 16.2987 16.134 16.2987 16.2058C16.2996 17.8564 16.3032 19.5066 16.2978 21.1572C16.2952 21.8 15.6116 22.2118 14.4312 22.2971C13.1381 22.3906 12.0096 21.9608 11.9014 21.3314C11.888 21.2562 11.8943 21.1802 11.8943 21.1046C11.8934 16.7968 11.8934 12.489 11.8934 8.18124C11.8934 8.0927 11.8934 8.00457 11.8934 7.90308C15.1326 7.90349 18.3182 7.90349 21.5503 7.90349ZM19.3789 9.11096C19.3816 8.94724 19.227 8.8779 18.8803 8.88041C18.1681 8.88459 17.4559 8.88167 16.7455 8.88167C16.0494 8.88167 15.3524 8.88751 14.6581 8.87958C14.2703 8.87498 14.097 8.9393 14.1041 9.1285C14.1202 9.55953 14.1005 9.99056 14.113 10.422C14.122 10.7378 14.4678 10.9303 15.1326 10.9412C16.1987 10.9583 17.2674 10.9583 18.3334 10.9412C18.9973 10.9311 19.3619 10.7365 19.3726 10.427C19.3878 9.98806 19.3709 9.54951 19.3789 9.11096Z" fill="white"/>
<path d="M21.0966 1.73547C21.58 1.92217 21.5461 2.12348 21.0493 2.30057C20.8205 2.3816 20.556 2.44049 20.2799 2.51776C20.4711 3.06866 20.3004 3.59199 19.5373 4.05184C18.4329 4.71802 16.4697 4.9423 14.8148 4.58938C13.1706 4.23854 12.252 3.38984 12.6398 2.56203C12.7014 2.42963 12.6675 2.34401 12.3896 2.29431C12.3601 2.28846 12.3324 2.28011 12.3074 2.27092C11.8659 2.11346 11.3423 1.95642 11.5237 1.65278C11.7015 1.35498 12.3047 1.2631 12.8632 1.15283C12.8846 1.19335 12.9034 1.20755 12.8998 1.22091C12.7577 1.79812 12.7658 1.80815 14.0016 1.94055C15.5073 2.10177 17.0192 2.11304 18.516 1.92509C19.1263 1.84908 19.708 1.7338 19.6714 1.29359C20.2048 1.45689 20.6856 1.57634 21.0966 1.73547Z" fill="white"/>
<path d="M19.2365 1.06057C19.4429 1.22345 19.3152 1.32912 18.9792 1.36838C18.0749 1.47405 17.1625 1.5626 16.2001 1.66367C15.3119 1.56845 14.4219 1.47322 13.5319 1.37674C13.2647 1.34792 13.1843 1.27524 13.2406 1.14452C13.3523 0.886817 13.4193 0.624106 13.523 0.365154C13.5811 0.218554 13.783 0.172193 14.1127 0.15841C14.8508 0.12792 15.5809 0.0640178 16.3145 0.0143157C17.2564 -0.0500046 18.007 0.103696 18.5351 0.468317C18.8022 0.654595 18.9908 0.866351 19.2365 1.06057Z" fill="white"/>
<path d="M18.4931 4.98364C18.4931 5.70578 18.4931 6.41456 18.4931 7.13921C17.3261 7.13921 16.168 7.13921 14.976 7.13921C14.976 6.42459 14.976 5.70954 14.976 4.98364C16.1546 4.98364 17.3118 4.98364 18.4931 4.98364Z" fill="white"/>
<path d="M15.1457 1.67573C15.278 1.69327 15.471 1.78098 15.4585 1.82526C15.4406 1.88874 15.2592 1.94304 15.1618 1.99357C14.6105 1.93677 14.1449 1.9067 13.7097 1.8357C13.5542 1.81064 13.4711 1.68784 13.355 1.61016C13.5283 1.59011 13.7088 1.545 13.8741 1.55461C14.3022 1.58009 14.7302 1.6206 15.1457 1.67573Z" fill="white"/>
<path d="M13.3212 4.97737C13.3212 5.70327 13.3212 6.41205 13.3212 7.13795C12.8646 7.13795 12.4062 7.13795 11.9174 7.13795C11.9076 7.08449 11.9335 7.02268 11.8799 6.98509C11.795 6.92536 11.6529 6.84016 11.5421 6.84308C11.4241 6.84517 11.2847 6.92954 11.2142 6.99302C11.1605 7.04064 11.2008 7.11122 11.2008 7.17178C11.1999 8.05807 11.1507 8.94435 11.2168 9.82896C11.2642 10.4617 10.1535 10.993 8.61384 10.7641C7.13944 10.5444 5.63376 10.3707 4.14148 10.1773C4.05034 10.1652 3.95562 10.1598 3.76439 10.1414C3.76439 10.25 3.76439 10.3431 3.76439 10.4354C3.76439 13.3733 3.76439 16.3111 3.76171 19.2486C3.76171 19.3538 3.75545 19.4603 3.72507 19.5651C3.64733 19.8333 3.23271 20.0104 2.6921 20.0162C2.15863 20.0212 1.70648 19.8471 1.60729 19.5869C1.57244 19.4983 1.58138 19.4056 1.58138 19.3154C1.58048 16.2414 1.5787 13.1674 1.58495 10.0933C1.58585 9.9338 1.52329 9.82771 1.20697 9.72246C0.190075 9.38332 0.218668 8.6783 1.25343 8.35252C1.53134 8.26523 1.58763 8.17585 1.58495 8.03885C1.57423 7.51803 1.58048 6.9972 1.58048 6.45674C2.31054 6.45674 2.9977 6.45674 3.76439 6.45674C3.76439 6.56241 3.76439 6.67267 3.76439 6.78294C3.76439 7.24487 3.75099 7.70639 3.7769 8.16833C3.78137 8.24142 3.92613 8.3592 4.05659 8.378C5.18161 8.53754 6.31824 8.67955 7.51921 8.83576C7.51921 8.23014 7.50848 7.65544 7.52278 7.08073C7.53887 6.39409 8.05178 5.81061 9.24024 5.38251C9.90864 5.14151 10.6655 4.99491 11.5153 4.97988C12.1077 4.96902 12.7038 4.97737 13.3212 4.97737Z" fill="white"/>
<path d="M5.10814 2.60797C5.10814 3.52349 5.11171 4.43943 5.10724 5.35495C5.10456 5.98019 4.33787 6.33521 2.99035 6.3327C2.57216 6.33145 2.14681 6.32477 1.73666 6.29135C0.969971 6.22787 0.332852 5.90418 0.325703 5.55125C0.305151 4.52254 0.318554 3.49342 0.319447 2.46429C0.319447 2.44258 0.339998 2.42127 0.356976 2.38995C0.482077 2.38995 0.606285 2.38995 0.751045 2.38995C0.768023 2.42462 0.799299 2.4597 0.799299 2.4952C0.802873 3.24366 0.801979 3.99295 0.801979 4.74182C0.801979 5.19123 1.39978 5.53998 2.38898 5.61724C2.38898 5.44391 2.38898 5.28604 2.38898 5.12858C2.38808 4.34128 2.3863 3.55482 2.3863 2.76752C2.3863 2.71489 2.35591 2.65558 2.39523 2.60964C2.46582 2.52903 2.57752 2.45636 2.67224 2.38076C2.76607 2.45385 2.93227 2.52611 2.94121 2.60212C2.97427 2.88906 2.95461 3.17683 2.95461 3.46418C2.95461 4.10029 2.95461 4.73597 2.95461 5.37166C2.95461 5.45268 2.95461 5.53413 2.95461 5.61641C3.88304 5.59218 4.59969 5.23424 4.60595 4.80071C4.61578 4.14247 4.60595 3.48465 4.60327 2.82641C4.60327 2.69067 4.60327 2.55534 4.60327 2.40164C4.765 2.39204 4.89815 2.3841 5.10903 2.37115C5.10814 2.46221 5.10814 2.5353 5.10814 2.60797Z" fill="white"/>
</svg>
