<svg width="49" height="23" viewBox="0 0 49 23" fill="none" xmlns="http://www.w3.org/2000/svg">
<path d="M48.3014 19.9092C49.6121 21.1237 47.8217 22.6537 44.9386 22.8015C41.5055 22.9769 39.0593 21.3058 40.6077 19.8954C40.7322 19.7818 40.7225 19.7087 40.5044 19.6243C40.1325 19.4811 39.7854 19.324 39.4126 19.1662C38.9312 19.4485 38.3038 19.5103 37.6195 19.5103C35.9252 19.5099 34.231 19.5178 32.5376 19.5116C32.2226 19.5103 32.0873 19.56 31.9885 19.6941C31.4163 20.463 30.8317 21.2298 30.2444 21.9967C29.7861 22.596 28.8687 22.8688 27.5277 22.8128C27.2545 22.8015 26.9795 22.799 26.7063 22.7944C25.5798 22.7769 24.7789 22.4076 24.8198 21.8793C24.8937 20.9416 25.0227 20.0052 25.1162 19.0684C25.1268 18.9502 25.0904 18.8266 25.0192 18.713C24.5751 17.9967 24.1213 17.2812 23.6497 16.5683C23.5892 16.4756 23.445 16.3795 23.2804 16.321C22.4341 16.0182 21.5763 15.7233 20.7052 15.4372C20.561 15.3896 20.3207 15.3667 20.1481 15.3838C18.7795 15.5183 17.4171 15.6661 16.0512 15.8069C15.3509 15.8796 14.7778 15.7313 14.6595 15.4523C14.534 15.1591 14.8873 14.9231 15.5929 14.8458C17.1262 14.6775 18.6629 14.5146 20.1979 14.3509C20.698 14.2974 21.1803 14.3208 21.5523 14.4962C22.6175 14.9999 23.8962 15.0943 25.3707 15.0835C30.9839 15.0426 36.5971 15.0538 42.2112 15.0471C42.4675 15.0467 42.7291 15.0492 42.9809 15.0689C43.7844 15.1315 44.2249 15.5183 43.861 15.8595C43.6385 16.0683 43.3493 16.2617 43.0815 16.4593C42.2548 17.072 41.4237 17.6834 40.5667 18.315C41.09 18.5388 41.5643 18.7548 42.0759 18.9498C42.1943 18.9953 42.4728 19.0033 42.6196 18.9703C44.685 18.5042 47.2522 18.9377 48.3014 19.9092ZM45.8276 21.2916C46.4389 21.0106 46.5928 20.5653 46.2031 20.2049C45.7929 19.8248 44.9831 19.6477 43.9259 19.7367C44.3869 19.9401 44.8122 20.1126 45.1975 20.3018C45.5348 20.4676 45.5544 20.6697 45.3292 20.8681C45.0943 21.0732 44.6912 21.1538 44.2276 21.1029C43.9767 21.0757 43.7408 20.9909 43.5326 20.912C43.1874 20.7821 42.8697 20.6347 42.5128 20.483C42.3482 20.8865 42.7647 21.2716 43.5086 21.4545C44.2837 21.645 45.1984 21.5807 45.8276 21.2916ZM29.8885 19.5274C28.9506 19.5274 28.0999 19.5274 27.1913 19.5274C27.1005 20.2851 27.0107 21.0356 26.919 21.7962C27.2358 21.8108 27.4965 21.8421 27.743 21.8275C27.9148 21.8175 28.1657 21.7607 28.2173 21.6955C28.7859 20.9847 29.3225 20.2692 29.8885 19.5274Z" fill="white"/>
<path d="M43.4125 11.3654C43.8628 11.3483 44.313 11.332 44.7633 11.3149C44.216 11.4811 43.6439 11.6373 42.9907 11.6373C42.964 11.6373 42.9364 11.6373 42.9097 11.6369C42.6819 11.6323 42.3046 11.4853 42.285 11.3909C42.2761 11.3504 42.294 11.3124 42.3287 11.2777C42.423 11.1875 42.6508 11.1244 42.9293 11.1311C43.1669 11.1369 43.4009 11.1582 43.7658 11.1804C43.5736 11.2497 43.481 11.2831 43.3894 11.3161C43.3965 11.3332 43.4036 11.3491 43.4125 11.3654Z" fill="#4E7C32"/>
<path d="M44.2035 10.5814C44.2169 10.6031 44.2294 10.6244 44.2427 10.6462C43.6536 10.9005 43.3226 10.9318 42.8875 10.723C43.3698 10.6712 43.7862 10.6265 44.2035 10.5814Z" fill="#4E7C32"/>
<path d="M43.853 9.86721C43.8654 9.88726 43.8761 9.90689 43.8868 9.92693C43.6715 9.95241 43.3422 10.0314 43.2639 9.99376C43.0459 9.88976 43.2158 9.83129 43.4881 9.84257C43.6092 9.84758 43.732 9.85844 43.853 9.86721Z" fill="#4E7C32"/>
<path d="M44.5426 11.8052C44.0123 12.0955 43.4232 12.3419 42.6543 12.4622C42.3171 12.5156 41.6782 12.3373 41.6426 12.2036C41.6257 12.1393 41.6461 12.0758 41.6969 12.0178C41.8143 11.8841 42.0911 11.7814 42.4239 11.7701C42.5992 11.7638 42.7762 11.7668 42.9863 11.768C43.0405 11.7684 43.0975 11.7684 43.1571 11.7684C43.0637 11.8632 43.0023 11.9259 42.8804 12.0483C43.5015 11.9581 44.022 11.8812 44.5426 11.8052Z" fill="#4E7C32"/>
<path d="M44.2943 10.1779C44.0496 10.2477 43.8574 10.3187 43.6394 10.3584C43.5353 10.3772 43.3671 10.3492 43.2603 10.3174C43.2176 10.3049 43.2265 10.2051 43.2817 10.1817C43.36 10.1483 43.5059 10.1362 43.6207 10.1378C43.8236 10.1408 44.0247 10.1608 44.2943 10.1779Z" fill="#4E7C32"/>
<path d="M42.6437 8.42168C42.7887 8.41166 42.94 8.41876 43.1918 8.41876C43.0112 8.49812 42.8884 8.56661 42.7353 8.61423C42.6615 8.63762 42.5031 8.64096 42.4417 8.6184C42.3803 8.59627 42.3509 8.52067 42.3856 8.48475C42.4185 8.45176 42.5493 8.42837 42.6437 8.42168Z" fill="#4E7C32"/>
<path d="M42.8306 9.85054L42.852 9.84302C42.8457 9.86641 42.8395 9.8898 42.835 9.91277C42.8341 9.89272 42.8323 9.87184 42.8306 9.85054Z" fill="white"/>
<path d="M42.835 9.91318C42.8582 10.3288 42.6838 10.7097 42.2691 11.1027C42.2228 11.1457 42.1774 11.1896 42.1312 11.2326C41.8784 11.4706 41.6231 11.7091 41.3881 11.9526C40.9779 12.3766 40.6255 12.8147 40.4502 13.2879C40.565 13.2992 40.6407 13.3084 40.7163 13.3142C40.8071 13.3209 40.9005 13.3242 41.0838 13.3343L41.2137 13.3376C41.8259 13.3752 41.704 13.5414 41.5964 13.7586C41.4406 14.0727 41.4237 14.4022 41.3196 14.723C41.2992 14.7844 41.1559 14.8834 41.0633 14.8851C40.3612 14.8988 39.6574 14.898 38.9553 14.8855C38.8583 14.8838 38.707 14.7973 38.6856 14.7418C38.5388 14.3642 38.4258 13.9842 38.2888 13.6053C38.2461 13.4888 38.2977 13.4132 38.5673 13.3911C38.9633 13.3581 39.3575 13.3217 39.8015 13.2825C39.9688 13.011 40.1477 12.7207 40.3497 12.392L40.3452 12.3465C40.4235 12.3135 40.5001 12.296 40.5276 12.2676C40.8177 11.9727 41.0989 11.6757 41.3872 11.3804C41.6836 11.0755 41.5848 10.7761 41.3276 10.4795C41.2369 10.3751 41.1425 10.2686 41.018 10.1721C40.557 9.81127 40.3265 9.42576 40.4609 8.93918C40.5446 9.26245 40.6131 9.52642 40.6825 9.7908C40.7519 9.78788 40.8204 9.78579 40.8898 9.78328C40.8898 9.68889 40.8898 9.59533 40.8898 9.47379C40.9717 9.43746 41.1087 9.37731 41.3134 9.2871C41.155 9.25243 41.0286 9.22528 40.9023 9.19772C40.9147 9.17767 40.9263 9.15804 40.9388 9.13799C41.6471 9.26078 41.5679 8.968 41.7281 8.82767C41.7583 8.80135 41.7895 8.7742 41.8197 8.74706C41.9621 8.61466 42.076 8.46722 41.8936 8.29681C41.9443 8.32689 42.0449 8.35988 42.0377 8.38661C41.9701 8.63596 42.0199 8.92039 41.7743 9.1263C41.2226 9.5874 41.1425 10.0088 41.7129 10.4737C41.9123 10.6357 41.9381 10.845 42.06 11.0655C42.4524 10.8508 42.7016 10.632 42.7345 10.3588C42.7487 10.2097 42.795 10.0614 42.835 9.91318Z" fill="white"/>
<path d="M42.6873 8.92831C42.9392 8.94543 43.1803 8.99513 43.5033 9.04317C43.2017 9.1125 42.9027 9.1977 42.5814 9.24531C42.464 9.26244 42.2522 9.20605 42.149 9.15426C42.0947 9.12628 42.1383 9.00892 42.2166 8.98219C42.3385 8.94 42.5352 8.91745 42.6873 8.92831Z" fill="#4E7C32"/>
<path d="M42.0688 12.6652C42.0955 12.6748 42.1222 12.684 42.1489 12.6931C41.8401 12.9057 41.5331 13.1179 41.2137 13.338L41.0838 13.3347C40.7011 13.0883 40.7616 12.8598 41.0339 12.6439C41.0847 12.6029 41.292 12.6046 41.518 12.5745C41.4184 12.699 41.3605 12.7717 41.2689 12.8874C41.5874 12.7984 41.8277 12.732 42.0688 12.6652Z" fill="#4E7C32"/>
<path d="M41.7218 8.51025C41.6773 8.5942 41.6266 8.66479 41.5679 8.72201C41.3926 8.8945 41.1479 8.9463 40.767 8.88323C41.0598 8.76837 41.3516 8.65435 41.7218 8.51025Z" fill="#4E7C32"/>
<path d="M40.484 11.1281C40.5045 11.2321 40.6789 11.3511 40.3363 11.4418C39.9901 11.5332 39.6529 11.6185 39.3201 11.4844C38.7425 11.2526 38.2042 10.9986 37.6516 10.7539C37.6845 10.7351 37.7183 10.7159 37.7512 10.6971C38.2522 10.8207 38.7532 10.9448 39.3441 11.0901C39.2996 10.9782 39.2738 10.913 39.2489 10.8474C39.9038 10.781 40.435 10.8963 40.484 11.1281Z" fill="#4E7C32"/>
<path d="M41.0339 10.6453C40.4751 10.8821 39.6377 10.7489 38.9668 10.3325C39.9839 10.3241 40.6023 10.4156 41.0339 10.6453Z" fill="#4E7C32"/>
<path d="M40.3434 12.3465L40.3479 12.392C40.1877 12.4488 40.0853 12.4851 39.894 12.5528C39.6413 12.3005 39.4073 12.0683 39.1741 11.8361C39.2106 11.8235 39.2453 11.811 39.2818 11.7993C39.4064 11.8833 39.531 11.9676 39.7214 12.0954C39.7775 11.9768 39.7988 11.9309 39.8255 11.8749C40.4004 11.9296 40.193 12.1727 40.3434 12.3465Z" fill="#4E7C32"/>
<path d="M40.573 9.93698C40.1423 10.2461 39.466 10.1813 38.7497 9.77075C39.3388 9.82463 39.9279 9.87851 40.573 9.93698Z" fill="#4E7C32"/>
<path d="M39.8451 8.8515C39.8389 8.87949 39.8344 8.90789 39.8291 8.93629C39.4215 9.11756 39.0727 8.93337 38.7025 8.88575C38.7123 8.85944 38.7221 8.83313 38.7319 8.8064C39.103 8.82143 39.4732 8.83605 39.8451 8.8515Z" fill="#4E7C32"/>
<path d="M40.0809 9.32007C39.628 9.49883 39.345 9.46709 38.7203 9.18433C39.2311 9.23528 39.6138 9.27329 40.0809 9.32007Z" fill="#4E7C32"/>
<path d="M39.07 12.2483C39.2168 12.311 39.3094 12.4012 39.4304 12.4814C38.7434 12.6614 38.4515 12.6518 37.9826 12.4012C37.5928 12.1923 37.2556 11.9614 36.8978 11.7429C36.549 11.7513 36.2865 11.9777 35.8185 11.7993C36.3452 11.7074 36.7564 11.6126 37.3276 11.702C38.0351 11.8131 38.5485 12.0274 39.07 12.2483Z" fill="#4E7C32"/>
<path d="M37.1097 12.2296C37.1221 12.2442 37.1355 12.2584 37.1471 12.2726C36.7475 12.3373 36.3542 12.415 35.9457 12.4614C35.6423 12.4956 35.3531 12.4146 35.3771 12.2701C35.3878 12.2032 35.7242 12.1343 35.936 12.0938C36.0427 12.0738 36.202 12.1164 36.3684 12.1335C36.2599 12.1669 36.186 12.189 36.113 12.2112C36.1264 12.2241 36.1406 12.2367 36.154 12.2496C36.4717 12.2429 36.7911 12.2362 37.1097 12.2296Z" fill="#4E7C32"/>
<path d="M37.0019 12.5958C37.0215 12.6121 37.042 12.6293 37.0616 12.646C36.6585 12.7779 36.2643 12.9158 35.8478 13.0386C35.5791 13.1179 35.2694 13.1225 35.071 12.9901C34.974 12.9254 34.9375 12.8168 34.9713 12.7374C35.0407 12.5745 35.3433 12.5733 35.6271 12.5779C35.7072 12.5796 35.7873 12.5846 35.9092 12.5904C35.8985 12.6472 35.8914 12.6881 35.8798 12.7546C36.2803 12.6973 36.6416 12.6464 37.0019 12.5958Z" fill="#4E7C32"/>
<path d="M35.9608 10.9611C35.9377 11.01 35.9395 11.0342 35.9235 11.0371C35.5702 11.0919 35.2151 11.1457 34.8574 11.1933C34.8441 11.195 34.7506 11.1286 34.7675 11.1077C34.8067 11.063 34.8752 11.0083 34.9624 10.992C35.2071 10.9461 35.4643 10.9089 35.7232 10.8876C35.7989 10.8809 35.8986 10.9394 35.9608 10.9611Z" fill="#4E7C32"/>
<path d="M36.2528 10.5104C35.9529 10.5752 35.7651 10.6349 35.5605 10.6512C35.4635 10.6591 35.3362 10.5852 35.2232 10.5488C35.3371 10.5067 35.4475 10.4348 35.5658 10.4311C35.7438 10.4265 35.9271 10.4699 36.2528 10.5104Z" fill="#4E7C32"/>
<path d="M35.143 10.0284C35.1875 10.036 35.2338 10.0431 35.2801 10.0502C35.1163 10.2803 34.9935 10.5192 34.78 10.7381C34.562 10.9607 34.5273 11.1678 34.7204 11.393C34.8859 11.5872 35.0273 11.786 35.1911 11.9969C35.2427 11.9827 35.3219 11.9606 35.3521 11.9522C34.869 12.5161 34.3733 13.0962 33.8563 13.6985C34.109 13.7206 34.2158 13.7298 34.3813 13.7444L34.5833 13.7415C34.9499 13.7954 34.8983 13.9165 34.812 14.0739C34.6937 14.292 34.6465 14.5208 34.618 14.7472C34.6002 14.8905 34.4561 14.9289 34.198 14.9335C34.0681 14.9356 33.9399 14.9427 33.8118 14.9473C32.7422 14.9832 32.6781 14.9535 32.5544 14.4503C32.5046 14.2498 32.4005 14.0522 32.3088 13.8208C32.6078 13.7908 32.9175 13.7653 33.2192 13.726C33.3393 13.7106 33.5084 13.6759 33.5395 13.6316C33.665 13.4545 33.7468 13.2704 33.8429 13.0899C33.1773 13.1125 33.3313 12.8168 33.0599 12.6723C33.5849 12.6422 33.9132 12.7027 33.8848 12.9968C34.2986 12.6681 34.8325 12.3607 34.7711 12.0044C34.7114 11.6569 34.3377 11.3207 34.125 11.012C34.1375 11.0196 34.1847 11.0463 34.2461 11.0818C34.3404 10.9101 34.4205 10.7627 34.5077 10.6019C34.78 10.5885 34.9019 10.492 35.143 10.0284Z" fill="white"/>
<path d="M34.5994 13.1613C34.7275 13.2628 34.8014 13.4056 35.1564 13.3129C34.958 13.4474 34.7604 13.5823 34.5371 13.7344C34.5531 13.736 34.5682 13.7385 34.5842 13.7406L34.3822 13.7435C34.2176 13.5268 34.1553 13.3296 34.5994 13.1613Z" fill="white"/>
<path d="M33.9391 12.0166C34.0165 12.0892 33.9649 12.2688 33.8608 12.2922C33.6366 12.3428 33.2628 12.3778 33.0911 12.3227C32.6639 12.187 32.3142 11.9961 31.9343 11.8278C31.9583 11.8119 31.9823 11.796 32.0081 11.7806C32.3685 11.8608 32.728 11.9414 33.1356 12.032C33.1053 11.9568 33.0911 11.9217 33.0688 11.87C33.4274 11.8432 33.7718 11.8574 33.9391 12.0166Z" fill="#4E7C32"/>
<path d="M34.4463 11.6603C33.9854 11.8833 33.5182 11.8194 32.9674 11.517C32.9852 11.4949 33.0039 11.4723 33.0217 11.4502C33.4764 11.517 33.932 11.5843 34.4463 11.6603Z" fill="#4E7C32"/>
<path d="M34.0664 11.1983C33.6028 11.3892 33.1507 11.3336 32.6453 11.0442C33.1596 11.1002 33.5725 11.1444 34.0664 11.1983Z" fill="#4E7C32"/>
<path d="M33.1454 13.0928C32.4736 13.2666 31.7715 13.0252 31.3737 12.5014C32.1701 12.5724 32.7218 12.7833 33.1454 13.0928Z" fill="#4E7C32"/>
<path d="M29.8182 13.4687C29.9864 13.4762 30.1643 13.5004 30.4322 13.5243C30.1706 13.6003 29.9721 13.6763 29.7452 13.7168C29.6277 13.7377 29.4364 13.7093 29.3216 13.6738C29.2789 13.66 29.2736 13.5827 29.3021 13.541C29.3092 13.5309 29.319 13.5226 29.3314 13.5184C29.4364 13.48 29.6064 13.4649 29.7461 13.4666C29.7701 13.467 29.7941 13.4675 29.8182 13.4687Z" fill="#4E7C32"/>
<path d="M29.9712 13.1739C30.135 13.1893 30.2907 13.2228 30.5283 13.2612C30.2862 13.2975 30.1083 13.3351 29.9232 13.3468C29.9 13.3485 29.8751 13.3481 29.8493 13.3468C29.7594 13.3418 29.6642 13.3201 29.5859 13.2984C29.5717 13.2942 29.5761 13.2562 29.5948 13.2261C29.6055 13.2073 29.6215 13.1919 29.6384 13.1881C29.7336 13.1672 29.8627 13.1639 29.9712 13.1739Z" fill="#4E7C32"/>
<path d="M29.3546 13.0945C29.3822 13.1275 29.3777 13.166 29.3555 13.2086C29.3056 13.3029 29.165 13.414 29.0939 13.5101C28.9426 13.7135 28.7806 13.9144 28.6196 14.1203C28.8794 14.1562 29.0556 14.1805 29.2442 14.2072C29.2069 14.3408 29.1713 14.4582 29.1428 14.5764C29.0689 14.8746 28.705 14.9866 28.0741 14.8892C27.9744 14.8738 27.8819 14.799 27.8525 14.7439C27.7706 14.5835 27.7217 14.4202 27.6505 14.231C28.1782 14.1968 28.6196 14.1015 28.519 13.8054C28.4078 13.7394 28.2965 13.673 28.1853 13.6062C28.2218 13.5886 28.2592 13.5711 28.2957 13.5535C28.4158 13.5949 28.5341 13.6371 28.6596 13.6809C29.0769 13.3589 29.3528 13.0386 28.8625 12.6681C28.7655 12.5942 28.8118 12.4563 28.8794 12.3624C28.9702 12.2367 29.1481 12.126 29.3439 12.0086C28.7931 12.3795 29.044 12.7274 29.3546 13.0945Z" fill="white"/>
<path d="M28.5831 13.1434C28.6222 13.1776 28.5991 13.262 28.5431 13.2774C28.4345 13.3071 28.2449 13.3347 28.1595 13.31C27.9006 13.2348 27.6746 13.1346 27.429 13.0415C27.7609 13.0415 28.0376 13.0323 28.3108 13.046C28.4105 13.0502 28.5315 13.0991 28.5831 13.1434Z" fill="#4E7C32"/>
<path d="M28.1737 13.7335C27.6896 13.8522 27.4565 13.7828 27.1717 13.4232C27.4903 13.5218 27.808 13.6204 28.1737 13.7335Z" fill="#4E7C32"/>
<path d="M26.3406 7.5939C26.3539 9.60746 26.3495 11.6206 26.3432 13.6342C26.3424 14.1629 25.6919 14.538 24.7299 14.576C24.5822 14.5818 24.3998 14.5697 24.2823 14.5321C23.8276 14.3889 23.3551 14.2502 22.9671 14.0727C22.7829 13.9879 22.6993 13.8192 22.6984 13.6889C22.6824 11.6908 22.6877 9.69308 22.6877 7.69455C22.6877 7.63358 22.7287 7.56257 22.677 7.51496C22.5925 7.43894 22.4448 7.37797 22.3238 7.3103C22.2134 7.37337 22.088 7.43184 21.9981 7.50076C21.9536 7.53501 21.9749 7.58763 21.9634 7.64611C21.506 7.64611 21.062 7.64611 20.5743 7.64611C20.5743 6.93608 20.5743 6.22271 20.5743 5.48929C22.0808 5.4471 23.5322 5.4446 24.7593 5.93452C25.8538 6.37223 26.337 6.93691 26.3406 7.5939Z" fill="white"/>
<path d="M20.8039 16.3406C21.7881 16.6042 22.0684 16.9525 22.0355 17.4787C21.9474 18.9163 22.0115 20.3556 22.0044 21.7945C22.0017 22.2865 21.2818 22.7021 20.3065 22.7944C19.2511 22.8938 18.2554 22.6678 17.8461 22.2121C17.7188 22.0705 17.661 21.906 17.6574 21.7515C17.6405 20.9036 17.6485 20.0553 17.6485 19.2075C17.6485 18.3291 17.6547 17.4508 17.6423 16.5724C17.6414 16.4271 17.7099 16.3552 18.0498 16.3356C18.4779 16.3101 18.9166 16.2725 19.3161 16.1999C19.9034 16.0925 20.3065 16.2074 20.8039 16.3406Z" fill="white"/>
<path d="M21.9518 8.40917C21.9518 10.178 21.9518 11.9455 21.9518 13.7365C20.4925 13.4053 19.1274 13.7962 17.6832 13.8693C17.6734 13.8396 17.6592 13.8046 17.6494 13.7695C17.6405 13.7398 17.6387 13.7098 17.6316 13.6621C17.3486 13.6621 17.0674 13.6621 16.764 13.6621C16.7497 13.716 16.7168 13.7682 16.7266 13.8183C16.7506 13.9495 16.6358 14.003 16.3564 14.028C15.8376 14.0748 15.3153 14.1291 14.8143 14.2076C13.5881 14.3985 12.8584 15.02 13.1529 15.5968C13.4786 16.2354 14.6799 16.6288 16.0236 16.5373C16.2292 16.5231 16.4347 16.5106 16.6981 16.4935C16.707 16.5674 16.7221 16.6397 16.7221 16.7115C16.723 18.3621 16.7266 20.0123 16.7213 21.6629C16.7186 22.3057 16.0378 22.7175 14.8623 22.8027C13.5747 22.8963 12.4508 22.4665 12.3432 21.8371C12.3298 21.7619 12.336 21.6859 12.336 21.6103C12.3352 17.3025 12.3352 12.9947 12.3352 8.68692C12.3352 8.59837 12.3352 8.51024 12.3352 8.40875C15.5609 8.40917 18.7332 8.40917 21.9518 8.40917ZM19.7895 9.61664C19.7921 9.45291 19.6382 9.38358 19.2929 9.38609C18.5837 9.39026 17.8745 9.38734 17.1671 9.38734C16.4739 9.38734 15.7798 9.39319 15.0884 9.38525C14.7022 9.38066 14.5295 9.44498 14.5367 9.63418C14.5527 10.0652 14.5331 10.4962 14.5456 10.9277C14.5545 11.2434 14.8988 11.436 15.5609 11.4468C16.6225 11.464 17.6867 11.464 18.7483 11.4468C19.4095 11.4368 19.7726 11.2422 19.7832 10.9327C19.7984 10.4937 19.7815 10.0552 19.7895 9.61664Z" fill="white"/>
<path d="M21.5009 2.24109C21.9823 2.42779 21.9485 2.6291 21.4537 2.80619C21.2259 2.88722 20.9626 2.94611 20.6876 3.02338C20.878 3.57427 20.7081 4.09761 19.9481 4.55746C18.8483 5.22363 16.8932 5.44792 15.2452 5.09499C13.6079 4.74415 12.6931 3.89546 13.0793 3.06765C13.1407 2.93525 13.1069 2.84963 12.8302 2.79992C12.8008 2.79408 12.7732 2.78572 12.7483 2.77654C12.3087 2.61908 11.7872 2.46203 11.9679 2.15839C12.145 1.8606 12.7456 1.76871 13.3018 1.65845C13.3231 1.69896 13.3418 1.71316 13.3383 1.72653C13.1968 2.30374 13.2048 2.31376 14.4355 2.44616C15.9349 2.60738 17.4405 2.61866 18.931 2.43071C19.5388 2.35469 20.1181 2.23942 20.0816 1.7992C20.6128 1.96251 21.0916 2.08196 21.5009 2.24109Z" fill="white"/>
<path d="M19.648 1.56612C19.8535 1.72901 19.7263 1.83468 19.3917 1.87394C18.4912 1.97961 17.5826 2.06815 16.6243 2.16923C15.7397 2.074 14.8534 1.97877 13.9672 1.88229C13.7011 1.85347 13.621 1.7808 13.6771 1.65007C13.7883 1.39237 13.855 1.12966 13.9583 0.870708C14.0161 0.724108 14.2172 0.677747 14.5456 0.663964C15.2806 0.633475 16.0076 0.569572 16.7382 0.51987C17.6761 0.45555 18.4235 0.60925 18.9495 0.973871C19.2155 1.16015 19.4033 1.37191 19.648 1.56612Z" fill="white"/>
<path d="M18.9077 5.48926C18.9077 6.2114 18.9077 6.92018 18.9077 7.64482C17.7455 7.64482 16.5922 7.64482 15.4052 7.64482C15.4052 6.9302 15.4052 6.21516 15.4052 5.48926C16.5789 5.48926 17.7313 5.48926 18.9077 5.48926Z" fill="white"/>
<path d="M15.5743 2.18141C15.706 2.19895 15.8982 2.28666 15.8857 2.33093C15.8679 2.39442 15.6873 2.44871 15.5903 2.49925C15.0413 2.44245 14.5776 2.41238 14.1443 2.34137C13.9895 2.31631 13.9067 2.19352 13.791 2.11583C13.9636 2.09579 14.1434 2.05068 14.308 2.06028C14.7343 2.08576 15.1605 2.12628 15.5743 2.18141Z" fill="white"/>
<path d="M13.7573 5.48299C13.7573 6.20889 13.7573 6.91767 13.7573 7.64357C13.3026 7.64357 12.8461 7.64357 12.3594 7.64357C12.3496 7.59011 12.3754 7.52829 12.322 7.4907C12.2375 7.43097 12.096 7.34577 11.9856 7.3487C11.8682 7.35078 11.7294 7.43515 11.6591 7.49864C11.6057 7.54625 11.6457 7.61684 11.6457 7.6774C11.6448 8.56368 11.5959 9.44997 11.6617 10.3346C11.7089 10.9673 10.6028 11.4986 9.06959 11.2697C7.60133 11.05 6.10192 10.8763 4.61586 10.6829C4.52509 10.6708 4.43077 10.6654 4.24034 10.647C4.24034 10.7556 4.24034 10.8487 4.24034 10.941C4.24034 13.8789 4.24034 16.8167 4.23767 19.7542C4.23767 19.8594 4.23144 19.9659 4.20119 20.0708C4.12377 20.3389 3.71088 20.516 3.17251 20.5218C2.64127 20.5268 2.191 20.3527 2.09223 20.0925C2.05753 20.0039 2.06642 19.9112 2.06642 19.821C2.06553 16.747 2.06375 13.673 2.06998 10.599C2.07087 10.4394 2.00858 10.3333 1.69357 10.2281C0.680917 9.88893 0.709392 9.18391 1.73984 8.85813C2.01659 8.77084 2.07265 8.68146 2.06998 8.54447C2.0593 8.02364 2.06553 7.50281 2.06553 6.96236C2.79254 6.96236 3.47684 6.96236 4.24034 6.96236C4.24034 7.06802 4.24034 7.17829 4.24034 7.28855C4.24034 7.75049 4.22699 8.21201 4.2528 8.67394C4.25725 8.74704 4.40141 8.86482 4.53132 8.88361C5.65165 9.04316 6.78355 9.18517 7.97951 9.34137C7.97951 8.73576 7.96883 8.16105 7.98307 7.58635C7.99909 6.89971 8.50987 6.31623 9.69338 5.88812C10.359 5.64713 11.1127 5.50053 11.9589 5.48549C12.5489 5.47463 13.1425 5.48299 13.7573 5.48299Z" fill="white"/>
<path d="M5.57852 3.11365C5.57852 4.02917 5.58208 4.94511 5.57763 5.86063C5.57496 6.48587 4.81146 6.84088 3.46956 6.83838C3.05311 6.83713 2.62954 6.83044 2.22109 6.79703C1.4576 6.73354 0.823131 6.40985 0.816012 6.05693C0.795545 5.02822 0.808893 3.9991 0.809782 2.96997C0.809782 2.94825 0.830248 2.92695 0.847155 2.89563C0.971735 2.89563 1.09542 2.89563 1.23958 2.89563C1.25649 2.93029 1.28763 2.96538 1.28763 3.00088C1.29119 3.74933 1.2903 4.49862 1.2903 5.24749C1.2903 5.6969 1.88562 6.04565 2.87069 6.12292C2.87069 5.94959 2.87069 5.79171 2.87069 5.63425C2.8698 4.84695 2.86802 4.06049 2.86802 3.27319C2.86802 3.22057 2.83776 3.16126 2.87692 3.11532C2.94721 3.03471 3.05845 2.96203 3.15277 2.88644C3.24621 2.95953 3.41172 3.03178 3.42062 3.1078C3.45354 3.39473 3.43397 3.68251 3.43397 3.96986C3.43397 4.60596 3.43397 5.24165 3.43397 5.87733C3.43397 5.95836 3.43397 6.0398 3.43397 6.12208C4.35853 6.09786 5.07219 5.73992 5.07842 5.30639C5.08821 4.64815 5.07842 3.99032 5.07575 3.33209C5.07575 3.19634 5.07575 3.06102 5.07575 2.90732C5.23681 2.89771 5.3694 2.88978 5.57941 2.87683C5.57852 2.96788 5.57852 3.04097 5.57852 3.11365Z" fill="white"/>
</svg>
