<svg width="19" height="19" viewBox="0 0 19 19" fill="none" xmlns="http://www.w3.org/2000/svg">
<path d="M9.50001 15.0417C7.67918 15.0417 4.43334 14.8833 3.08751 14.5667C2.53334 14.4083 2.13751 14.0125 1.97918 13.4583C1.74168 12.5875 1.58334 10.7667 1.58334 9.50001C1.58334 8.23334 1.74168 6.41251 1.97918 5.54168C2.13751 4.98751 2.53334 4.59168 3.08751 4.43334C4.43334 4.11668 7.67918 3.95834 9.50001 3.95834C11.3208 3.95834 14.5667 4.11668 15.9125 4.43334C16.4667 4.59168 16.8625 4.98751 17.0208 5.54168C17.2583 6.41251 17.4167 8.23334 17.4167 9.50001C17.4167 10.7667 17.2583 12.5875 17.0208 13.4583C16.8625 14.0125 16.4667 14.4083 15.9125 14.5667C14.5667 14.8833 11.3208 15.0417 9.50001 15.0417Z" stroke="#F9F3EE" stroke-width="1.58333" stroke-linecap="round" stroke-linejoin="round"/>
<path d="M7.91666 11.8751L11.875 9.50009L7.91666 7.12509V11.8751Z" stroke="#F9F3EE" stroke-width="1.58333" stroke-linecap="round" stroke-linejoin="round"/>
</svg>
