<svg width="17" height="17" viewBox="0 0 17 17" fill="none" xmlns="http://www.w3.org/2000/svg">
<path d="M5.52502 1.4166H11.475C13.7417 1.4166 15.5834 3.25826 15.5834 5.52493V11.4749C15.5834 12.5645 15.1505 13.6095 14.3801 14.38C13.6096 15.1504 12.5646 15.5833 11.475 15.5833H5.52502C3.25835 15.5833 1.41669 13.7416 1.41669 11.4749V5.52493C1.41669 4.43533 1.84953 3.39036 2.61999 2.6199C3.39045 1.84944 4.43542 1.4166 5.52502 1.4166ZM5.38335 2.83326C4.70705 2.83326 4.05845 3.10192 3.58023 3.58014C3.10201 4.05836 2.83335 4.70696 2.83335 5.38326V11.6166C2.83335 13.0262 3.97377 14.1666 5.38335 14.1666H11.6167C12.293 14.1666 12.9416 13.8979 13.4198 13.4197C13.898 12.9415 14.1667 12.2929 14.1667 11.6166V5.38326C14.1667 3.97368 13.0263 2.83326 11.6167 2.83326H5.38335ZM12.2188 3.89576C12.4536 3.89576 12.6788 3.98905 12.8449 4.15509C13.0109 4.32114 13.1042 4.54635 13.1042 4.78118C13.1042 5.01601 13.0109 5.24121 12.8449 5.40726C12.6788 5.57331 12.4536 5.6666 12.2188 5.6666C11.9839 5.6666 11.7587 5.57331 11.5927 5.40726C11.4266 5.24121 11.3334 5.01601 11.3334 4.78118C11.3334 4.54635 11.4266 4.32114 11.5927 4.15509C11.7587 3.98905 11.9839 3.89576 12.2188 3.89576ZM8.50002 4.95826C9.43933 4.95826 10.3402 5.3314 11.0044 5.99559C11.6685 6.65978 12.0417 7.56062 12.0417 8.49993C12.0417 9.43924 11.6685 10.3401 11.0044 11.0043C10.3402 11.6685 9.43933 12.0416 8.50002 12.0416C7.56071 12.0416 6.65987 11.6685 5.99568 11.0043C5.33149 10.3401 4.95835 9.43924 4.95835 8.49993C4.95835 7.56062 5.33149 6.65978 5.99568 5.99559C6.65987 5.3314 7.56071 4.95826 8.50002 4.95826ZM8.50002 6.37493C7.93644 6.37493 7.39593 6.59881 6.99742 6.99733C6.5989 7.39584 6.37502 7.93634 6.37502 8.49993C6.37502 9.06351 6.5989 9.60402 6.99742 10.0025C7.39593 10.401 7.93644 10.6249 8.50002 10.6249C9.06361 10.6249 9.60411 10.401 10.0026 10.0025C10.4011 9.60402 10.625 9.06351 10.625 8.49993C10.625 7.93634 10.4011 7.39584 10.0026 6.99733C9.60411 6.59881 9.06361 6.37493 8.50002 6.37493Z" fill="#F9F3EE"/>
</svg>
