<svg width="17" height="18" viewBox="0 0 17 18" fill="none" xmlns="http://www.w3.org/2000/svg">
<path d="M5.52533 1.91101H11.4753C13.742 1.91101 15.5837 3.75268 15.5837 6.01934V11.9693C15.5837 13.0589 15.1508 14.1039 14.3804 14.8744C13.6099 15.6448 12.5649 16.0777 11.4753 16.0777H5.52533C3.25866 16.0777 1.41699 14.236 1.41699 11.9693V6.01934C1.41699 4.92975 1.84983 3.88478 2.6203 3.11431C3.39076 2.34385 4.43573 1.91101 5.52533 1.91101ZM5.38366 3.32768C4.70736 3.32768 4.05875 3.59634 3.58054 4.07456C3.10232 4.55277 2.83366 5.20138 2.83366 5.87768V12.111C2.83366 13.5206 3.97408 14.661 5.38366 14.661H11.617C12.2933 14.661 12.9419 14.3924 13.4201 13.9141C13.8983 13.4359 14.167 12.7873 14.167 12.111V5.87768C14.167 4.46809 13.0266 3.32768 11.617 3.32768H5.38366ZM12.2191 4.39018C12.4539 4.39018 12.6791 4.48346 12.8452 4.64951C13.0112 4.81556 13.1045 5.04077 13.1045 5.27559C13.1045 5.51042 13.0112 5.73563 12.8452 5.90168C12.6791 6.06773 12.4539 6.16101 12.2191 6.16101C11.9842 6.16101 11.759 6.06773 11.593 5.90168C11.4269 5.73563 11.3337 5.51042 11.3337 5.27559C11.3337 5.04077 11.4269 4.81556 11.593 4.64951C11.759 4.48346 11.9842 4.39018 12.2191 4.39018ZM8.50033 5.45268C9.43963 5.45268 10.3405 5.82582 11.0047 6.49001C11.6689 7.1542 12.042 8.05504 12.042 8.99434C12.042 9.93365 11.6689 10.8345 11.0047 11.4987C10.3405 12.1629 9.43963 12.536 8.50033 12.536C7.56102 12.536 6.66018 12.1629 5.99599 11.4987C5.3318 10.8345 4.95866 9.93365 4.95866 8.99434C4.95866 8.05504 5.3318 7.1542 5.99599 6.49001C6.66018 5.82582 7.56102 5.45268 8.50033 5.45268ZM8.50033 6.86934C7.93674 6.86934 7.39624 7.09323 6.99772 7.49174C6.59921 7.89026 6.37533 8.43076 6.37533 8.99434C6.37533 9.55793 6.59921 10.0984 6.99772 10.4969C7.39624 10.8955 7.93674 11.1193 8.50033 11.1193C9.06391 11.1193 9.60441 10.8955 10.0029 10.4969C10.4014 10.0984 10.6253 9.55793 10.6253 8.99434C10.6253 8.43076 10.4014 7.89026 10.0029 7.49174C9.60441 7.09323 9.06391 6.86934 8.50033 6.86934Z" fill="#F9F3EE"/>
</svg>
