<svg width="247" height="24" viewBox="0 0 247 24" fill="none" xmlns="http://www.w3.org/2000/svg">
<path d="M8.79492 10.5138H237.48V14.906H8.79492V10.5138Z" fill="#4E7C32"/>
<g filter="url(#filter0_d_0_544)">
<path d="M11.9334 16.6632C14.6575 16.6632 16.8658 14.5001 16.8658 11.8317C16.8658 9.16337 14.6575 7.00024 11.9334 7.00024C9.20929 7.00024 7.00098 9.16337 7.00098 11.8317C7.00098 14.5001 9.20929 16.6632 11.9334 16.6632Z" fill="white"/>
</g>
<g filter="url(#filter1_d_0_544)">
<path d="M11.9316 14.5155C13.445 14.5155 14.6719 13.3138 14.6719 11.8314C14.6719 10.349 13.445 9.14722 11.9316 9.14722C10.4182 9.14722 9.19141 10.349 9.19141 11.8314C9.19141 13.3138 10.4182 14.5155 11.9316 14.5155Z" fill="#665345"/>
</g>
<g filter="url(#filter2_d_0_544)">
<path d="M235.237 16.663C237.961 16.663 240.17 14.4998 240.17 11.8315C240.17 9.16313 237.961 7 235.237 7C232.513 7 230.305 9.16313 230.305 11.8315C230.305 14.4998 232.513 16.663 235.237 16.663Z" fill="white"/>
</g>
<g filter="url(#filter3_d_0_544)">
<path d="M235.235 9.14722C235.777 9.14722 236.307 9.30464 236.758 9.59958C237.208 9.89452 237.56 10.3137 237.767 10.8042C237.974 11.2947 238.029 11.8344 237.923 12.355C237.817 12.8757 237.556 13.354 237.173 13.7294C236.79 14.1047 236.301 14.3604 235.77 14.464C235.238 14.5675 234.687 14.5144 234.187 14.3112C233.686 14.1081 233.258 13.764 232.957 13.3226C232.656 12.8812 232.495 12.3622 232.495 11.8314C232.495 11.1195 232.784 10.4368 233.298 9.93339C233.812 9.43001 234.509 9.14722 235.235 9.14722V9.14722Z" fill="#665345"/>
</g>
<defs>
<filter id="filter0_d_0_544" x="0.419593" y="0.418861" width="23.0276" height="22.8257" filterUnits="userSpaceOnUse" color-interpolation-filters="sRGB">
<feFlood flood-opacity="0" result="BackgroundImageFix"/>
<feColorMatrix in="SourceAlpha" type="matrix" values="0 0 0 0 0 0 0 0 0 0 0 0 0 0 0 0 0 0 127 0" result="hardAlpha"/>
<feOffset/>
<feGaussianBlur stdDeviation="3.29069"/>
<feColorMatrix type="matrix" values="0 0 0 0 0.0862745 0 0 0 0 0.196078 0 0 0 0 0.619608 0 0 0 0.141 0"/>
<feBlend mode="normal" in2="BackgroundImageFix" result="effect1_dropShadow_0_544"/>
<feBlend mode="normal" in="SourceGraphic" in2="effect1_dropShadow_0_544" result="shape"/>
</filter>
<filter id="filter1_d_0_544" x="2.61002" y="2.56583" width="18.6432" height="18.5311" filterUnits="userSpaceOnUse" color-interpolation-filters="sRGB">
<feFlood flood-opacity="0" result="BackgroundImageFix"/>
<feColorMatrix in="SourceAlpha" type="matrix" values="0 0 0 0 0 0 0 0 0 0 0 0 0 0 0 0 0 0 127 0" result="hardAlpha"/>
<feOffset/>
<feGaussianBlur stdDeviation="3.29069"/>
<feColorMatrix type="matrix" values="0 0 0 0 0.0862745 0 0 0 0 0.196078 0 0 0 0 0.619608 0 0 0 0.141 0"/>
<feBlend mode="normal" in2="BackgroundImageFix" result="effect1_dropShadow_0_544"/>
<feBlend mode="normal" in="SourceGraphic" in2="effect1_dropShadow_0_544" result="shape"/>
</filter>
<filter id="filter2_d_0_544" x="223.723" y="0.418617" width="23.0276" height="22.8257" filterUnits="userSpaceOnUse" color-interpolation-filters="sRGB">
<feFlood flood-opacity="0" result="BackgroundImageFix"/>
<feColorMatrix in="SourceAlpha" type="matrix" values="0 0 0 0 0 0 0 0 0 0 0 0 0 0 0 0 0 0 127 0" result="hardAlpha"/>
<feOffset/>
<feGaussianBlur stdDeviation="3.29069"/>
<feColorMatrix type="matrix" values="0 0 0 0 0.0862745 0 0 0 0 0.196078 0 0 0 0 0.619608 0 0 0 0.141 0"/>
<feBlend mode="normal" in2="BackgroundImageFix" result="effect1_dropShadow_0_544"/>
<feBlend mode="normal" in="SourceGraphic" in2="effect1_dropShadow_0_544" result="shape"/>
</filter>
<filter id="filter3_d_0_544" x="225.914" y="2.56583" width="18.6432" height="18.5311" filterUnits="userSpaceOnUse" color-interpolation-filters="sRGB">
<feFlood flood-opacity="0" result="BackgroundImageFix"/>
<feColorMatrix in="SourceAlpha" type="matrix" values="0 0 0 0 0 0 0 0 0 0 0 0 0 0 0 0 0 0 127 0" result="hardAlpha"/>
<feOffset/>
<feGaussianBlur stdDeviation="3.29069"/>
<feColorMatrix type="matrix" values="0 0 0 0 0.0862745 0 0 0 0 0.196078 0 0 0 0 0.619608 0 0 0 0.141 0"/>
<feBlend mode="normal" in2="BackgroundImageFix" result="effect1_dropShadow_0_544"/>
<feBlend mode="normal" in="SourceGraphic" in2="effect1_dropShadow_0_544" result="shape"/>
</filter>
</defs>
</svg>
