<svg width="101" height="14" viewBox="0 0 101 14" fill="none" xmlns="http://www.w3.org/2000/svg">
<path d="M90.1232 13.7823H87.2792V4.83219H90.1232V13.7823ZM88.7012 3.5775C87.7811 3.5775 87.1119 2.90833 87.1119 1.98823C87.1119 1.06812 87.8648 0.398956 88.7012 0.398956C89.6213 0.398956 90.2905 1.06812 90.2905 1.98823C90.2905 2.90833 89.6213 3.5775 88.7012 3.5775ZM100.495 13.7823H97.6513V8.93083C97.6513 7.50885 97.0658 7.09062 96.2293 7.09062C95.3929 7.09062 94.5564 7.75979 94.5564 9.01448V13.7823H91.7125V4.83219H94.3891V6.08687C94.6401 5.50135 95.6438 4.58125 97.0658 4.58125C98.6551 4.58125 100.328 5.50135 100.328 8.26166V13.7823H100.495Z" fill="#F9F3EE"/>
<path d="M56.9995 2.90834C56.4976 3.15928 55.9957 3.24293 55.4102 3.32657C55.9957 2.99199 56.4139 2.49011 56.5812 1.82095C56.0793 2.15553 55.4938 2.32282 54.8247 2.49011C54.3228 1.98824 53.57 1.65366 52.8172 1.65366C51.0606 1.65366 49.7223 3.32657 50.1405 4.99949C47.8821 4.91584 45.8746 3.82845 44.4526 2.15553C43.6998 3.41022 44.118 4.99949 45.289 5.83595C44.8708 5.83595 44.4526 5.66866 44.0343 5.50136C44.0343 6.75605 44.9545 7.92709 46.2091 8.26168C45.7909 8.34532 45.3727 8.42897 44.9545 8.34532C45.289 9.43272 46.2928 10.2692 47.5475 10.2692C46.5437 11.022 45.0381 11.4402 43.6161 11.2729C44.8708 12.0257 46.2928 12.5276 47.7984 12.5276C52.9008 12.5276 55.7448 8.26168 55.5775 4.33032C56.163 3.99574 56.6649 3.49386 56.9995 2.90834Z" fill="#F9F3EE"/>
<path d="M13.5035 7.09059C13.5035 3.41018 10.4922 0.398926 6.81178 0.398926C3.13137 0.398926 0.120117 3.41018 0.120117 7.09059C0.120117 10.4364 2.54585 13.1967 5.72439 13.6986V9.01445H4.05147V7.09059H5.72439V5.58497C5.72439 3.91205 6.72814 2.99195 8.23376 2.99195C8.98658 2.99195 9.73939 3.15924 9.73939 3.15924V4.83216H8.90293C8.06647 4.83216 7.81553 5.33403 7.81553 5.83591V7.09059H9.65574L9.32116 9.01445H7.73189V13.7823C11.0777 13.2804 13.5035 10.4364 13.5035 7.09059Z" fill="#F9F3EE"/>
</svg>
