<svg width="16" height="15" viewBox="0 0 16 15" fill="none" xmlns="http://www.w3.org/2000/svg">
<path d="M7.83332 13.5444C7.83332 13.5444 0.811371 9.7161 0.811371 5.06744C0.811514 4.24581 1.10394 3.44959 1.63894 2.81415C2.17394 2.1787 2.91848 1.74326 3.74598 1.58186C4.57348 1.42045 5.43286 1.54305 6.178 1.92879C6.92315 2.31454 7.50808 2.93963 7.83333 3.69779L7.83331 3.6978C8.15856 2.93964 8.74348 2.31454 9.48863 1.9288C10.2338 1.54305 11.0932 1.42045 11.9207 1.58186C12.7482 1.74326 13.4927 2.1787 14.0277 2.81415C14.5627 3.44959 14.8551 4.24581 14.8553 5.06744C14.8553 9.7161 7.83332 13.5444 7.83332 13.5444Z" stroke="#4E7C32" stroke-width="1.5" stroke-linecap="round" stroke-linejoin="round"/>
</svg>
